<svg width="72" height="72" viewBox="0 0 72 72" fill="none" xmlns="http://www.w3.org/2000/svg">
<path d="M72 36C72 55.8823 55.8823 72 36 72C16.1178 72 1.52588e-05 55.8823 1.52588e-05 36C1.52588e-05 16.1177 16.1178 0 36 0C55.8823 0 72 16.1177 72 36ZM16.6444 36C16.6444 46.6898 25.3102 55.3556 36 55.3556C46.6898 55.3556 55.3557 46.6898 55.3557 36C55.3557 25.3102 46.6898 16.6444 36 16.6444C25.3102 16.6444 16.6444 25.3102 16.6444 36Z" fill="#E6E6E6"/>
<path d="M15.6179 65.6744C10.409 62.0966 6.23359 57.2107 3.51141 51.5078C0.789231 45.8048 -0.383814 39.4858 0.110179 33.1858C0.604172 26.8858 2.7478 20.8269 6.3256 15.6179C9.9034 10.409 14.7893 6.23358 20.4922 3.5114L27.6622 18.5323C24.5959 19.9959 21.969 22.2408 20.0454 25.0414C18.1217 27.8421 16.9692 31.0997 16.7036 34.4869C16.438 37.8742 17.0687 41.2716 18.5323 44.3378C19.9959 47.4041 22.2408 50.031 25.0415 51.9546L15.6179 65.6744Z" fill="#0573EA"/>
<path d="M25.872 41V39.608H28.432V31.128H29.264L26.432 32.888L25.76 31.656L28.912 29.72H30.08V39.608H32.48V41H25.872Z" fill="#0573EA"/>
<path d="M34.5218 42.056L33.2898 41.688L37.4018 28.92L38.6498 29.288L34.5218 42.056ZM42.9678 41.144C42.4664 41.144 41.9758 41.096 41.4958 41C41.0264 40.8933 40.5838 40.744 40.1678 40.552C39.7624 40.3493 39.4051 40.1093 39.0958 39.832L39.6718 38.552C40.1731 38.9573 40.6904 39.256 41.2238 39.448C41.7571 39.64 42.3224 39.736 42.9198 39.736C43.4318 39.736 43.8638 39.6613 44.2158 39.512C44.5678 39.3627 44.8291 39.144 44.9998 38.856C45.1811 38.568 45.2718 38.2213 45.2718 37.816C45.2718 37.208 45.0691 36.7547 44.6638 36.456C44.2691 36.1467 43.6931 35.992 42.9358 35.992H41.1918V34.6H42.7758C43.2344 34.6 43.6238 34.5253 43.9438 34.376C44.2638 34.216 44.5091 33.9973 44.6798 33.72C44.8611 33.432 44.9518 33.0853 44.9518 32.68C44.9518 32.136 44.7704 31.72 44.4078 31.432C44.0558 31.1333 43.5384 30.984 42.8558 30.984C42.2798 30.984 41.7464 31.0853 41.2558 31.288C40.7651 31.4907 40.3011 31.8 39.8638 32.216L39.2878 30.952C39.7251 30.5147 40.2691 30.1787 40.9198 29.944C41.5811 29.6987 42.2691 29.576 42.9838 29.576C43.7304 29.576 44.3704 29.6933 44.9038 29.928C45.4478 30.1627 45.8584 30.4987 46.1358 30.936C46.4238 31.3733 46.5678 31.896 46.5678 32.504C46.5678 33.1867 46.3758 33.7787 45.9918 34.28C45.6184 34.7707 45.1011 35.096 44.4398 35.256V35.08C44.9624 35.1653 45.4051 35.336 45.7678 35.592C46.1304 35.848 46.4078 36.1733 46.5998 36.568C46.7918 36.9627 46.8878 37.416 46.8878 37.928C46.8878 38.5893 46.7278 39.1653 46.4078 39.656C46.0984 40.136 45.6504 40.504 45.0638 40.76C44.4771 41.016 43.7784 41.144 42.9678 41.144Z" fill="#BFBFBF"/>
</svg>
