<svg width="72" height="72" viewBox="0 0 72 72" fill="none" xmlns="http://www.w3.org/2000/svg">
<path d="M72 36C72 55.8823 55.8823 72 36 72C16.1177 72 0 55.8823 0 36C0 16.1177 16.1177 0 36 0C55.8823 0 72 16.1177 72 36ZM16.6444 36C16.6444 46.6898 25.3102 55.3556 36 55.3556C46.6898 55.3556 55.3556 46.6898 55.3556 36C55.3556 25.3102 46.6898 16.6444 36 16.6444C25.3102 16.6444 16.6444 25.3102 16.6444 36Z" fill="#E6E6E6"/>
<path d="M72 36C72 55.8823 55.8823 72 36 72C16.1177 72 0 55.8823 0 36C0 16.1177 16.1177 0 36 0C55.8823 0 72 16.1177 72 36ZM16.6444 36C16.6444 46.6898 25.3102 55.3556 36 55.3556C46.6898 55.3556 55.3556 46.6898 55.3556 36C55.3556 25.3102 46.6898 16.6444 36 16.6444C25.3102 16.6444 16.6444 25.3102 16.6444 36Z" fill="#0573EA"/>
<path d="M28.624 41.144C28.1227 41.144 27.632 41.096 27.152 41C26.6827 40.8933 26.24 40.744 25.824 40.552C25.4187 40.3493 25.0613 40.1093 24.752 39.832L25.328 38.552C25.8293 38.9573 26.3467 39.256 26.88 39.448C27.4133 39.64 27.9787 39.736 28.576 39.736C29.088 39.736 29.52 39.6613 29.872 39.512C30.224 39.3627 30.4853 39.144 30.656 38.856C30.8373 38.568 30.928 38.2213 30.928 37.816C30.928 37.208 30.7253 36.7547 30.32 36.456C29.9253 36.1467 29.3493 35.992 28.592 35.992H26.848V34.6H28.432C28.8907 34.6 29.28 34.5253 29.6 34.376C29.92 34.216 30.1653 33.9973 30.336 33.72C30.5173 33.432 30.608 33.0853 30.608 32.68C30.608 32.136 30.4267 31.72 30.064 31.432C29.712 31.1333 29.1947 30.984 28.512 30.984C27.936 30.984 27.4027 31.0853 26.912 31.288C26.4213 31.4907 25.9573 31.8 25.52 32.216L24.944 30.952C25.3813 30.5147 25.9253 30.1787 26.576 29.944C27.2373 29.6987 27.9253 29.576 28.64 29.576C29.3867 29.576 30.0267 29.6933 30.56 29.928C31.104 30.1627 31.5147 30.4987 31.792 30.936C32.08 31.3733 32.224 31.896 32.224 32.504C32.224 33.1867 32.032 33.7787 31.648 34.28C31.2747 34.7707 30.7573 35.096 30.096 35.256V35.08C30.6187 35.1653 31.0613 35.336 31.424 35.592C31.7867 35.848 32.064 36.1733 32.256 36.568C32.448 36.9627 32.544 37.416 32.544 37.928C32.544 38.5893 32.384 39.1653 32.064 39.656C31.7547 40.136 31.3067 40.504 30.72 40.76C30.1333 41.016 29.4347 41.144 28.624 41.144Z" fill="#0573EA"/>
<path d="M34.5218 42.056L33.2897 41.688L37.4018 28.92L38.6498 29.288L34.5218 42.056ZM42.9678 41.144C42.4664 41.144 41.9758 41.096 41.4958 41C41.0264 40.8933 40.5838 40.744 40.1678 40.552C39.7624 40.3493 39.4051 40.1093 39.0958 39.832L39.6718 38.552C40.1731 38.9573 40.6904 39.256 41.2238 39.448C41.7571 39.64 42.3224 39.736 42.9198 39.736C43.4318 39.736 43.8638 39.6613 44.2158 39.512C44.5678 39.3627 44.8291 39.144 44.9998 38.856C45.1811 38.568 45.2718 38.2213 45.2718 37.816C45.2718 37.208 45.0691 36.7547 44.6638 36.456C44.2691 36.1467 43.6931 35.992 42.9358 35.992H41.1918V34.6H42.7758C43.2344 34.6 43.6238 34.5253 43.9438 34.376C44.2638 34.216 44.5091 33.9973 44.6798 33.72C44.8611 33.432 44.9518 33.0853 44.9518 32.68C44.9518 32.136 44.7704 31.72 44.4078 31.432C44.0558 31.1333 43.5384 30.984 42.8558 30.984C42.2798 30.984 41.7464 31.0853 41.2558 31.288C40.7651 31.4907 40.3011 31.8 39.8638 32.216L39.2878 30.952C39.7251 30.5147 40.2691 30.1787 40.9198 29.944C41.5811 29.6987 42.2691 29.576 42.9838 29.576C43.7304 29.576 44.3704 29.6933 44.9038 29.928C45.4478 30.1627 45.8584 30.4987 46.1358 30.936C46.4238 31.3733 46.5677 31.896 46.5677 32.504C46.5677 33.1867 46.3758 33.7787 45.9918 34.28C45.6184 34.7707 45.1011 35.096 44.4398 35.256V35.08C44.9624 35.1653 45.4051 35.336 45.7678 35.592C46.1304 35.848 46.4078 36.1733 46.5998 36.568C46.7918 36.9627 46.8878 37.416 46.8878 37.928C46.8878 38.5893 46.7278 39.1653 46.4078 39.656C46.0984 40.136 45.6504 40.504 45.0638 40.76C44.4771 41.016 43.7784 41.144 42.9678 41.144Z" fill="#BFBFBF"/>
</svg>
