<svg width="68" height="21" viewBox="0 0 68 21" fill="none" xmlns="http://www.w3.org/2000/svg">
<path d="M44.1002 5.09214C42.2144 5.09214 40.838 5.61642 40.01 6.65167C39.3517 7.4747 39.0313 8.60732 39.0313 10.1136V12.5918C39.1187 15.7658 40.7598 17.5134 43.6525 17.5134C46.9679 17.5134 48.7205 15.8341 48.7205 12.6568V9.73577C48.7205 6.91464 46.9063 5.09131 44.0994 5.09131L44.1002 5.09214ZM41.8907 10.2101C41.9049 8.98513 42.0771 8.3019 42.4666 7.92741C42.7504 7.65446 43.1706 7.52547 43.7864 7.52547C43.8272 7.52547 43.8688 7.52547 43.9121 7.52713C45.0971 7.52713 45.8861 7.99066 45.8861 10.2551V12.3746C45.8861 14.6166 45.1363 15.0551 43.8414 15.0551C42.5465 15.0551 41.9115 14.302 41.8907 12.5394V10.2101Z" fill="white"/>
<path d="M56.0018 5.23317H53.2506V1.5632C53.2506 1.18123 53.2506 0.286621 52.445 0.286621H52.1621C51.0669 0.286621 50.4386 1.04392 50.4386 2.36377V5.234C50.0791 5.24066 49.7986 5.28559 49.6047 5.4537C49.3651 5.66091 49.3318 5.99296 49.3318 6.32084V6.69782C49.3318 7.38771 49.6039 7.62655 50.4386 7.64319V13.6225C50.4386 14.85 50.7032 15.7995 51.2267 16.4461C51.7859 17.1385 52.6397 17.4897 53.764 17.4897C55.7005 17.4897 57.1602 16.3438 57.1602 14.8233V13.5751C57.1602 12.7728 56.9938 12.2752 56.1666 12.2752H55.5075C54.8908 12.2752 54.5371 12.6804 54.5371 13.387V14.364C54.3857 14.582 54.2634 14.6777 53.9055 14.6777C53.5884 14.6777 53.2506 14.4622 53.2506 13.858V7.64486H55.5033C55.951 7.64652 56.338 7.64486 56.6326 7.52169C56.9879 7.3719 57.1602 7.06399 57.1602 6.58048V6.32167C57.1602 5.60016 56.7707 5.234 56.0018 5.234V5.23317Z" fill="white"/>
<path d="M63.0657 5.09214C61.18 5.09214 59.8035 5.61642 58.9755 6.65167C58.3172 7.4747 57.9968 8.60732 57.9968 10.1136V12.5918C58.0842 15.7658 59.7253 17.5134 62.618 17.5134C65.9334 17.5134 67.686 15.8341 67.686 12.6568V9.73577C67.686 6.91464 65.8719 5.09131 63.0649 5.09131L63.0657 5.09214ZM60.8562 10.2101C60.8704 8.98513 61.0426 8.3019 61.4321 7.92741C61.7159 7.65446 62.1361 7.52547 62.752 7.52547C62.7927 7.52547 62.8344 7.52547 62.8776 7.52713C64.0627 7.52713 64.8516 7.99066 64.8516 10.2551V12.3746C64.8516 14.6166 64.1018 15.0551 62.8069 15.0551C61.512 15.0551 60.877 14.302 60.8562 12.5394V10.2101Z" fill="white"/>
<path d="M38.1022 12.9839C38.1022 12.0252 38.098 11.0657 38.1038 10.107C38.108 9.44788 37.974 8.8229 37.6969 8.22539C36.412 5.45336 32.8452 4.34238 30.0848 5.74962C30.8272 6.22979 31.4538 6.88473 31.8815 7.6853C32.0014 7.65367 32.1229 7.63037 32.246 7.61789C33.6208 7.47808 34.7018 8.05063 35.1645 9.1666C35.3376 9.58436 35.3876 10.0263 35.3876 10.474C35.3884 12.3381 35.3901 14.2014 35.3876 16.0655C35.3876 16.4258 35.4317 16.7637 35.6838 17.0466C36.0666 17.476 36.6949 17.6225 37.2825 17.4119C37.7893 17.2297 38.0955 16.787 38.1005 16.1853C38.108 15.1184 38.103 14.0516 38.103 12.9847L38.1022 12.9839Z" fill="white"/>
<path d="M32.0926 13.015C32.0926 14.0818 32.0984 15.1487 32.0901 16.2156C32.086 16.8172 31.7797 17.26 31.2729 17.4422C30.6854 17.6528 30.0571 17.5063 29.6743 17.0769C29.4221 16.7939 29.3772 16.4561 29.378 16.0957C29.3813 14.2316 29.3797 12.3683 29.378 10.5042C29.378 10.0565 29.3289 9.61462 29.155 9.19686C28.6923 8.08089 27.6104 7.50835 26.2365 7.64816C25.1405 7.75967 24.1593 8.67092 23.9696 9.76775C23.9263 10.0191 23.9039 10.277 23.903 10.5317C23.8972 12.4224 23.8964 14.3132 23.9014 16.2039C23.903 16.7265 23.6925 17.1293 23.2348 17.3665C22.7479 17.6186 22.2403 17.6153 21.7685 17.3157C21.4031 17.0844 21.2051 16.739 21.2051 16.2988C21.2051 14.1376 21.1535 11.9756 21.2284 9.81685C21.2858 8.15246 22.2237 6.93996 23.5876 6.06033C26.3988 4.24616 30.3242 5.31802 31.6865 8.25649C31.9636 8.854 32.0976 9.47981 32.0935 10.1381C32.0876 11.0968 32.0918 12.0563 32.0918 13.015H32.0926Z" fill="white"/>
<path d="M24.816 16.577C24.816 17.4175 24.8143 18.258 24.816 19.0985C24.8185 20.1853 25.6548 20.9926 26.7383 20.956C27.6479 20.9252 28.4518 20.1346 28.4585 19.2233C28.471 17.4574 28.4718 15.6915 28.4585 13.9264C28.4518 13.0094 27.6762 12.2554 26.7225 12.1938C25.8346 12.1364 24.9866 12.8163 24.8443 13.6959C24.8235 13.8249 24.816 13.9531 24.8168 14.0829C24.8168 14.9143 24.8168 15.7456 24.8168 16.577H24.816Z" fill="white"/>
<path d="M26.6483 1.13368e-05C28.0547 0.00417229 29.1907 1.14511 29.1915 2.55484C29.1932 3.96873 28.0506 5.11466 26.6392 5.11466C25.2278 5.11466 24.0869 3.96873 24.0894 2.55317C24.0919 1.13762 25.2361 -0.00414962 26.6475 1.13368e-05H26.6483ZM26.6384 1.09684C25.8345 1.0985 25.1845 1.75344 25.1862 2.55983C25.1878 3.36706 25.8386 4.01783 26.6434 4.01617C27.4481 4.0145 28.098 3.3604 28.0955 2.55484C28.093 1.74761 27.4406 1.09518 26.6384 1.09684Z" fill="white"/>
<path d="M23.2253 3.28471C22.7335 3.28471 22.2417 3.28888 21.7499 3.28305C21.3571 3.27889 21.0475 3.01009 20.9967 2.64476C20.9468 2.28858 21.179 1.95654 21.5468 1.85418C21.63 1.83088 21.7141 1.82672 21.7998 1.82672C22.7693 1.82672 23.7388 1.82755 24.7083 1.82422C24.8156 1.82422 24.8564 1.84752 24.8548 1.95654C24.8481 2.35432 24.8473 2.75211 24.8548 3.1499C24.8573 3.26724 24.8132 3.28721 24.7008 3.28638C24.209 3.28055 23.7172 3.28388 23.2253 3.28388V3.28471Z" fill="white"/>
<path d="M30.1975 3.28471C30.6893 3.28471 31.1812 3.28888 31.673 3.28305C32.0658 3.27889 32.3754 3.01009 32.4261 2.64476C32.4761 2.28858 32.2439 1.95654 31.8761 1.85418C31.7928 1.83088 31.7088 1.82672 31.6231 1.82672C30.6536 1.82672 29.6841 1.82755 28.7146 1.82422C28.6072 1.82422 28.5664 1.84752 28.5681 1.95654C28.5748 2.35432 28.5756 2.75211 28.5681 3.1499C28.5656 3.26724 28.6097 3.28721 28.7221 3.28638C29.2139 3.28055 29.7057 3.28388 30.1975 3.28388V3.28471Z" fill="white"/>
<path d="M8.09478 6.42992C7.13527 5.41714 5.86618 5.2041 4.96991 5.2041C0.862211 5.2041 6.10352e-05 7.90622 6.10352e-05 10.1739V12.2003C6.10352e-05 13.7848 0.445283 15.1172 1.28829 16.0534C2.17042 17.0329 3.47779 17.5505 5.0706 17.5505C6.44871 17.5505 7.49311 17.1236 8.41601 16.6625C8.82046 16.4495 8.87288 16.293 8.87538 16.0193L8.62489 14.5679C8.57496 14.2708 8.47426 14.0619 8.35526 14.0095C8.24624 13.9612 8.09062 14.0378 7.97911 14.1102C6.92889 14.8101 6.18407 15.0839 5.32442 15.0839C4.20679 15.0839 3.04505 14.7943 2.89775 12.6472L2.88111 12.4092H8.10976C8.99355 12.4092 9.28482 12.3035 9.35639 11.0494C9.46873 8.98808 9.04348 7.43437 8.09395 6.43158L8.09478 6.42992ZM5.88199 10.4985C5.79378 10.4985 5.55244 10.5027 5.24619 10.5085C4.59126 10.5201 3.97294 10.531 3.57515 10.531C3.38958 10.531 3.25143 10.5285 3.17986 10.5235L2.97431 10.5077V10.3013C2.97431 8.4588 3.29554 7.31703 4.89418 7.31703C6.0659 7.31703 6.73831 8.16504 6.73831 9.64218C6.73831 10.1465 6.3863 10.4985 5.88199 10.4985Z" fill="white"/>
<path d="M19.7868 5.20801C20.5853 5.24636 20.5852 5.48881 20.5827 6.13281V6.60645C20.5827 7.23585 20.5138 7.4581 20.3932 7.79492C19.9955 8.87342 19.5979 9.99926 19.2126 11.0869L19.2145 11.0879C18.4814 13.1599 17.7886 15.1164 17.1296 16.6816C16.8909 17.2779 16.7411 17.5038 16.1208 17.5039H14.652C14.0434 17.5038 13.8916 17.277 13.6413 16.6768C12.547 14.1329 11.4374 11.1351 10.4313 8.00879C10.2674 7.49547 10.1882 6.85422 10.1882 6.0498C10.1882 5.41403 10.3924 5.209 11.029 5.20898L11.3864 5.20801H13.445C13.1929 6.80936 12.985 8.10474 12.6716 9.90918C12.6225 10.1903 12.7317 10.1504 12.8913 10.1504C13.591 10.1512 14.291 10.163 14.9899 10.1455C15.2878 10.138 15.3933 10.2208 15.3884 10.5361C15.3701 11.7486 15.3793 12.9613 15.3835 14.1738C15.3834 14.2787 15.3356 14.4045 15.4645 14.5176C16.3699 12.3648 17.2649 10.2393 18.1852 8.05078C17.358 8.05078 16.5986 8.03265 15.8405 8.05762C15.4847 8.0692 15.3595 7.98126 15.3669 7.59961C15.3823 6.80268 15.3829 6.00552 15.3806 5.20801H19.7868Z" fill="white"/>
</svg>
