<svg width="20" height="20" viewBox="0 0 20 20" fill="none" xmlns="http://www.w3.org/2000/svg">
<path d="M1.04163 9.41667C1.04163 4.53042 5.08329 0.625 9.99996 0.625C14.9166 0.625 18.9583 4.53042 18.9583 9.41667V12.9533C18.9583 13.0297 18.9545 13.1051 18.947 13.1796C18.9545 13.2296 18.9583 13.2808 18.9583 13.3333C18.9583 14.1542 18.857 15.0487 18.7583 15.7321C18.6033 16.8017 17.9704 17.8625 16.8116 18.3212C15.5645 18.8154 13.3991 19.375 9.99996 19.375C9.72369 19.375 9.45874 19.2653 9.26339 19.0699C9.06804 18.8746 8.95829 18.6096 8.95829 18.3333C8.95829 18.0571 9.06804 17.7921 9.26339 17.5968C9.45874 17.4014 9.72369 17.2917 9.99996 17.2917C13.1679 17.2917 15.0687 16.7708 16.0445 16.3846C16.362 16.2588 16.6237 15.9358 16.6962 15.4337C16.7054 15.3701 16.7144 15.3054 16.7233 15.2396C16.1375 15.37 15.4608 15.4958 14.7879 15.5663C13.9037 15.6592 13.0416 15.1262 12.8804 14.1662C12.7862 13.6079 12.7083 12.8025 12.7083 11.6662C12.7083 10.5308 12.7862 9.72583 12.8804 9.16708C13.0416 8.20708 13.9037 7.67417 14.7879 7.76708C15.1429 7.80417 15.4991 7.85667 15.842 7.91708C15.1637 5.41542 12.8262 3.54167 9.99996 3.54167C7.17371 3.54167 4.83663 5.41542 4.15788 7.91708C4.50743 7.85496 4.85903 7.80493 5.21204 7.76708C6.09621 7.67417 6.95829 8.20708 7.11996 9.16708C7.21371 9.72542 7.29163 10.5308 7.29163 11.6667C7.29163 12.8025 7.21371 13.6075 7.11996 14.1662C6.95829 15.1262 6.09621 15.6592 5.21204 15.5663C4.29621 15.4704 3.37454 15.2725 2.68288 15.0996C1.68288 14.8492 1.04163 13.9425 1.04163 12.9537V9.41667Z" fill="#0573EA"/>
</svg>
