<svg width="14" height="16" viewBox="0 0 14 16" fill="none" xmlns="http://www.w3.org/2000/svg">
<path d="M1.97679 1.97679C4.6125 -0.658929 8.8875 -0.658929 11.5232 1.97679C14.1589 4.6125 14.1589 8.8875 11.5232 11.5232L11.5168 11.5296L7.97529 14.9336C7.64583 15.2498 7.20676 15.4264 6.75006 15.4261C6.29337 15.4259 5.85448 15.2489 5.52536 14.9323L1.98321 11.5303L1.97679 11.5232C-0.658929 8.8875 -0.658929 4.6125 1.97679 1.97679ZM6.75 4.17857C6.06801 4.17857 5.41396 4.44949 4.93173 4.93173C4.44949 5.41396 4.17857 6.06801 4.17857 6.75C4.17857 7.43199 4.44949 8.08604 4.93173 8.56827C5.41396 9.05051 6.06801 9.32143 6.75 9.32143C7.43199 9.32143 8.08604 9.05051 8.56827 8.56827C9.05051 8.08604 9.32143 7.43199 9.32143 6.75C9.32143 6.06801 9.05051 5.41396 8.56827 4.93173C8.08604 4.44949 7.43199 4.17857 6.75 4.17857Z" fill="#005216"/>
</svg>
