<svg width="17" height="17" viewBox="0 0 17 17" fill="none" xmlns="http://www.w3.org/2000/svg">
<path fill-rule="evenodd" clip-rule="evenodd" d="M8.33332 0C12.9357 0 16.6667 3.73094 16.6667 8.33332C16.6667 12.9357 12.9357 16.6667 8.33332 16.6667C3.73098 16.6667 0 12.9357 0 8.33332C0 3.73094 3.73098 0 8.33332 0ZM9.16848 7.5H7.50184V12.5H9.16848V7.5ZM8.3418 3.95832C7.73422 3.95832 7.29348 4.3966 7.29348 4.98844C7.29348 5.60422 7.72262 6.04168 8.3418 6.04168C8.93691 6.04168 9.37684 5.60418 9.37684 5C9.37684 4.39664 8.93691 3.95832 8.3418 3.95832Z" fill="#0573EA"/>
</svg>
