<svg width="16" height="16" viewBox="0 0 16 16" fill="none" xmlns="http://www.w3.org/2000/svg">
<g clip-path="url(#clip0_449_42270)">
<path d="M2.55995 3.18772C3.37901 3.05897 6.73995 2.91428 7.99995 2.93272C9.0837 2.9224 11.7209 3.01397 12.9593 3.13615C12.564 2.01865 11.5568 1.12897 10.4099 0.982091C9.60338 0.881466 8.5037 0.798966 6.99776 0.819591C5.49182 0.840216 4.39026 0.956466 3.5812 1.07865C2.24495 1.28928 1.04995 2.4649 0.821821 3.81084C0.816196 3.84459 0.810571 3.88303 0.804321 3.9249C1.31682 3.54397 1.9187 3.27709 2.55995 3.18772Z" fill="#0060C6"/>
<path d="M15.8672 6.33483C15.7147 5.14514 14.655 4.13858 13.4147 3.97389C11.2294 3.75733 8.00001 3.7392 8.00001 3.74701C6.60345 3.73264 3.33407 3.86576 2.58532 3.97389C1.82688 4.07139 1.14157 4.48983 0.683133 5.06514C0.390321 5.43389 0.191571 5.86764 0.133133 6.33389C0.0443832 7.05264 -0.0259293 8.03576 0.00969568 9.38014C0.0453207 10.7245 0.171258 11.7089 0.297196 12.4308C0.515946 13.6248 1.58876 14.6736 2.78438 14.8745C3.50845 15.0136 6.65626 15.2055 8.00001 15.1811C9.34376 15.2055 12.4916 15.0136 13.2159 14.8755C14.4116 14.6745 15.4859 13.6255 15.7031 12.4317C15.8281 11.7098 15.9531 10.7251 15.9906 9.38108C16.0281 8.03701 15.9559 7.0542 15.8672 6.33483ZM13.2081 10.5723C12.989 10.5723 12.7747 10.5073 12.5925 10.3856C12.4102 10.2638 12.2682 10.0907 12.1843 9.88819C12.1005 9.68569 12.0785 9.46286 12.1213 9.2479C12.1641 9.03294 12.2697 8.83549 12.4247 8.68053C12.5797 8.52557 12.7772 8.42005 12.9921 8.37733C13.2071 8.33461 13.4299 8.3566 13.6324 8.44052C13.8349 8.52444 14.0079 8.66652 14.1297 8.84879C14.2514 9.03106 14.3163 9.24533 14.3163 9.46451C14.3163 9.61002 14.2876 9.7541 14.2319 9.88853C14.1762 10.023 14.0946 10.1451 13.9917 10.248C13.8888 10.3508 13.7666 10.4324 13.6322 10.4881C13.4977 10.5437 13.3536 10.5724 13.2081 10.5723Z" fill="#0060C6"/>
</g>
<defs>
<clipPath id="clip0_449_42270">
<rect width="16" height="16" fill="white"/>
</clipPath>
</defs>
</svg>
