<svg width="20" height="20" viewBox="0 0 20 20" fill="none" xmlns="http://www.w3.org/2000/svg">
<path fill-rule="evenodd" clip-rule="evenodd" d="M17.0084 8.21655C16.9598 8.2143 16.9112 8.21346 16.8625 8.21405H14.8334C13.1734 8.21405 11.7517 9.53155 11.7517 11.2499C11.7517 12.9682 13.1734 14.2857 14.8342 14.2857H16.8617C16.9128 14.2863 16.9614 14.2852 17.0075 14.2824C17.3501 14.2602 17.6729 14.1143 17.916 13.872C18.1591 13.6297 18.3059 13.3073 18.3292 12.9649C18.3325 12.9157 18.3325 12.8632 18.3325 12.8149V9.68488C18.3325 9.63655 18.3325 9.58405 18.3292 9.53488C18.3059 9.19256 18.1592 8.87033 17.9163 8.62802C17.6734 8.38571 17.3508 8.2398 17.0084 8.21738M14.6559 12.0599C15.0834 12.0599 15.4309 11.6982 15.4309 11.2507C15.4309 10.8032 15.0834 10.4415 14.6559 10.4415C14.2284 10.4415 13.8817 10.8032 13.8817 11.2507C13.8817 11.6982 14.2275 12.0599 14.6559 12.0599Z" fill="#0573EA"/>
<path fill-rule="evenodd" clip-rule="evenodd" d="M16.8617 15.5003C16.8897 15.4993 16.9174 15.5049 16.9428 15.5167C16.9681 15.5284 16.9904 15.5459 17.0077 15.5678C17.0251 15.5897 17.0371 15.6153 17.0427 15.6427C17.0483 15.6701 17.0474 15.6984 17.0401 15.7253C16.8784 16.302 16.6226 16.7937 16.2117 17.207C15.6109 17.8128 14.8484 18.082 13.9067 18.2095C12.9917 18.3337 11.8234 18.3337 10.3467 18.3337H8.64925C7.17341 18.3337 6.00425 18.3337 5.08925 18.2095C4.14758 18.082 3.38508 17.8128 2.78425 17.207C2.18341 16.6028 1.91675 15.8337 1.79008 14.8853C1.66675 13.962 1.66675 12.7837 1.66675 11.2962V11.2045C1.66675 9.71699 1.66675 8.53783 1.79008 7.61616C1.91675 6.66699 2.18341 5.90033 2.78341 5.29283C3.38425 4.68783 4.14675 4.41783 5.08841 4.29116C6.00425 4.16699 7.17341 4.16699 8.64925 4.16699H10.3467C11.8226 4.16699 12.9917 4.16699 13.9067 4.29116C14.8484 4.41866 15.6109 4.68783 16.2117 5.29283C16.6226 5.70699 16.8784 6.19866 17.0401 6.77616C17.0473 6.80306 17.048 6.83127 17.0423 6.85853C17.0366 6.88578 17.0247 6.91133 17.0073 6.93312C16.99 6.95491 16.9678 6.97233 16.9425 6.98401C16.9172 6.99568 16.8896 7.00126 16.8617 7.00033H14.8342C12.5559 7.00033 10.5484 8.81449 10.5484 11.2503C10.5484 13.6862 12.5567 15.5003 14.8351 15.5003H16.8617ZM4.67841 7.40533C4.59907 7.40565 4.52058 7.42161 4.4474 7.45227C4.37422 7.48294 4.30781 7.52771 4.25194 7.58405C4.19606 7.64038 4.15184 7.70717 4.12178 7.7806C4.09172 7.85402 4.07642 7.93265 4.07675 8.01199C4.07675 8.34783 4.34591 8.61949 4.67841 8.61949H7.89175C8.22508 8.61949 8.49425 8.34783 8.49425 8.01199C8.49469 7.85168 8.43149 7.69775 8.31852 7.584C8.20555 7.47025 8.05206 7.40599 7.89175 7.40533H4.67841Z" fill="#0573EA"/>
<path d="M6.48071 3.35297L8.11238 2.15047C8.53822 1.83581 9.05374 1.66602 9.58321 1.66602C10.1127 1.66602 10.6282 1.83581 11.054 2.15047L12.6949 3.35964C12.0082 3.33297 11.2415 3.33297 10.4024 3.33297H8.59405C7.82571 3.33297 7.11988 3.33297 6.48071 3.35297Z" fill="#0573EA"/>
</svg>
