<svg width="16" height="16" viewBox="0 0 16 16" fill="none" xmlns="http://www.w3.org/2000/svg">
<path d="M7.99967 14.6654C4.31767 14.6654 1.33301 11.6807 1.33301 7.9987C1.33301 4.3167 4.31767 1.33203 7.99967 1.33203C11.6817 1.33203 14.6663 4.3167 14.6663 7.9987C14.6663 11.6807 11.6817 14.6654 7.99967 14.6654ZM7.33301 9.9987V11.332H8.66634V9.9987H7.33301ZM8.66634 8.90203C9.20212 8.74055 9.66208 8.392 9.96245 7.91986C10.2628 7.44772 10.3836 6.8834 10.3028 6.32968C10.2221 5.77595 9.94508 5.26966 9.52235 4.903C9.09962 4.53635 8.55926 4.33372 7.99967 4.33203C7.46021 4.33186 6.93735 4.51863 6.52008 4.86054C6.10281 5.20246 5.8169 5.67839 5.71101 6.20736L7.01901 6.46937C7.05613 6.28365 7.14522 6.1123 7.27592 5.97524C7.40662 5.83819 7.57355 5.74106 7.75729 5.69517C7.94103 5.64928 8.13403 5.6565 8.31382 5.71601C8.49362 5.77552 8.65282 5.88486 8.7729 6.03131C8.89298 6.17775 8.969 6.35529 8.99213 6.54326C9.01525 6.73123 8.98453 6.9219 8.90352 7.09309C8.82252 7.26427 8.69457 7.40894 8.53456 7.51025C8.37455 7.61156 8.18906 7.66535 7.99967 7.66536C7.82286 7.66536 7.65329 7.7356 7.52827 7.86063C7.40325 7.98565 7.33301 8.15522 7.33301 8.33203V9.33203H8.66634V8.90203Z" fill="#272727"/>
</svg>
