<svg width="20" height="20" viewBox="0 0 20 20" fill="none" xmlns="http://www.w3.org/2000/svg">
<mask id="mask0_3_33378" style="mask-type:luminance" maskUnits="userSpaceOnUse" x="0" y="2" width="20" height="16">
<path d="M9.58317 16.6663H2.9165C2.58498 16.6663 2.26704 16.5346 2.03262 16.3002C1.7982 16.0658 1.6665 15.7479 1.6665 15.4163V4.58301C1.6665 4.25149 1.7982 3.93354 2.03262 3.69912C2.26704 3.4647 2.58498 3.33301 2.9165 3.33301H17.0832C17.4147 3.33301 17.7326 3.4647 17.9671 3.69912C18.2015 3.93354 18.3332 4.25149 18.3332 4.58301V10.7838" stroke="white" stroke-width="1.66667" stroke-linecap="round" stroke-linejoin="round"/>
<path d="M1.6665 4.58301C1.6665 4.25149 1.7982 3.93354 2.03262 3.69912C2.26704 3.4647 2.58498 3.33301 2.9165 3.33301H17.0832C17.4147 3.33301 17.7326 3.4647 17.9671 3.69912C18.2015 3.93354 18.3332 4.25149 18.3332 4.58301V8.33301H1.6665V4.58301Z" fill="white" stroke="white" stroke-width="1.66667"/>
<path d="M14.1667 13.75L12.5 15.4167L14.1667 17.0833M16.6667 13.75L18.3333 15.4167L16.6667 17.0833" stroke="white" stroke-width="1.66667" stroke-linecap="round" stroke-linejoin="round"/>
<path d="M3.33333 5.83268C3.33333 5.37244 3.70643 4.99935 4.16667 4.99935C4.6269 4.99935 5 5.37244 5 5.83268C5 6.29292 4.6269 6.66602 4.16667 6.66602C3.70643 6.66602 3.33333 6.29292 3.33333 5.83268Z" fill="black"/>
<path d="M5.83333 5.83268C5.83333 5.37244 6.20643 4.99935 6.66667 4.99935C7.1269 4.99935 7.5 5.37244 7.5 5.83268C7.5 6.29292 7.1269 6.66602 6.66667 6.66602C6.20643 6.66602 5.83333 6.29292 5.83333 5.83268Z" fill="black"/>
</mask>
<g mask="url(#mask0_3_33378)">
<path d="M0 0H20V20H0V0Z" fill="#0573EA"/>
</g>
</svg>
