<svg width="17" height="17" viewBox="0 0 17 17" fill="none" xmlns="http://www.w3.org/2000/svg">
<path fill-rule="evenodd" clip-rule="evenodd" d="M9.41347 0.397178L10.6359 1.43679C10.9023 1.6633 11.2332 1.80036 11.5817 1.82858L13.1812 1.95784C13.9961 2.0237 14.643 2.67058 14.7088 3.48542L14.8381 5.08491C14.8663 5.43346 15.0034 5.76432 15.2299 6.03073L16.2695 7.25315C16.7991 7.87589 16.7991 8.79073 16.2695 9.41347L15.2299 10.6359C15.0034 10.9023 14.8663 11.2332 14.8381 11.5817L14.7088 13.1812C14.643 13.9961 13.996 14.643 13.1812 14.7088L11.5817 14.8381C11.2332 14.8663 10.9023 15.0034 10.6359 15.2299L9.41347 16.2695C8.79073 16.7991 7.87589 16.7991 7.25315 16.2695L6.03073 15.2299C5.76432 15.0034 5.43346 14.8663 5.08491 14.8381L3.48542 14.7088C2.67058 14.643 2.0237 13.996 1.95784 13.1812L1.82854 11.5817C1.80032 11.2332 1.66326 10.9023 1.43675 10.6359L0.397178 9.41347C-0.132393 8.79073 -0.132393 7.87589 0.397178 7.25315L1.43679 6.03073C1.6633 5.76432 1.80036 5.43346 1.82858 5.08491L1.95784 3.48542C2.0237 2.67058 2.67058 2.0237 3.48542 1.95784L5.08491 1.82854C5.43346 1.80032 5.76432 1.66326 6.03073 1.43675L7.25315 0.397178C7.87589 -0.132393 8.79073 -0.132393 9.41347 0.397178ZM11.4682 5.35276L7.49675 9.34577L5.58597 7.43499L4.40757 8.61335L7.49675 11.7026L12.6466 6.53116L11.4682 5.35276Z" fill="#0573EA"/>
</svg>
