<svg width="20" height="20" viewBox="0 0 20 20" fill="none" xmlns="http://www.w3.org/2000/svg">
<g clip-path="url(#clip0_858_732)">
<path d="M8.922 0C8.628 0 8.365 0.183 8.266 0.457L7.56 2.414C7.30733 2.47667 7.08933 2.54067 6.906 2.606C6.706 2.67733 6.446 2.78733 6.126 2.936L4.482 2.066C4.34789 1.99458 4.19418 1.96874 4.04409 1.99237C3.894 2.016 3.75567 2.08783 3.65 2.197L2.204 3.692C2.012 3.891 1.958 4.182 2.066 4.436L2.837 6.243C2.70966 6.47767 2.607 6.679 2.529 6.847C2.445 7.029 2.341 7.28233 2.217 7.607L0.419996 8.377C0.149996 8.492 -0.0170048 8.762 0.000995159 9.051L0.132995 11.126C0.142018 11.2608 0.190419 11.39 0.272192 11.4975C0.353964 11.6051 0.465511 11.6863 0.592996 11.731L2.295 12.336C2.34366 12.5707 2.395 12.7727 2.449 12.942C2.53638 13.2044 2.63582 13.4627 2.747 13.716L1.892 15.606C1.83117 15.7387 1.81466 15.8875 1.84492 16.0303C1.87517 16.1731 1.95058 16.3024 2.06 16.399L3.686 17.851C3.79287 17.9466 3.92653 18.0071 4.06889 18.0243C4.21126 18.0414 4.35546 18.0145 4.482 17.947L6.158 17.059C6.41995 17.1984 6.69049 17.321 6.968 17.426L7.7 17.7L8.35 19.5C8.39863 19.6315 8.48564 19.7454 8.59976 19.8269C8.71387 19.9084 8.84982 19.9537 8.99 19.957L10.89 20C11.0339 20.0033 11.1754 19.9622 11.2951 19.8822C11.4149 19.8022 11.507 19.6873 11.559 19.553L12.325 17.526C12.5863 17.4365 12.8451 17.3398 13.101 17.236C13.3103 17.1454 13.5164 17.0477 13.719 16.943L15.619 17.755C15.7441 17.8087 15.8822 17.8247 16.0163 17.801C16.1504 17.7774 16.2747 17.7152 16.374 17.622L17.78 16.303C17.8851 16.2055 17.9566 16.0773 17.9845 15.9366C18.0123 15.796 17.995 15.6502 17.935 15.52L17.118 13.74C17.2263 13.529 17.327 13.3142 17.42 13.096C17.5283 12.8288 17.6284 12.5584 17.72 12.285L19.51 11.74C19.6555 11.696 19.7824 11.6052 19.871 11.4817C19.9596 11.3582 20.005 11.2089 20 11.057L19.93 9.136C19.9248 9.01072 19.8856 8.88922 19.8165 8.78456C19.7474 8.6799 19.6511 8.59605 19.538 8.542L17.66 7.64C17.5733 7.32133 17.4967 7.072 17.43 6.892C17.3356 6.65025 17.2309 6.4127 17.116 6.18L17.93 4.46C17.9922 4.32948 18.0113 4.18252 17.9843 4.04045C17.9573 3.89839 17.8857 3.76862 17.78 3.67L16.376 2.344C16.2777 2.25095 16.1546 2.1884 16.0214 2.1639C15.8883 2.13941 15.751 2.15403 15.626 2.206L13.728 2.99C13.5187 2.85067 13.328 2.736 13.156 2.646C12.9513 2.538 12.6767 2.42267 12.332 2.3L11.672 0.459C11.6227 0.324592 11.5334 0.208527 11.4161 0.126454C11.2988 0.0443815 11.1592 0.000246609 11.016 0L8.922 0ZM9.976 7.019C11.643 7.019 12.994 8.354 12.994 10.002C12.994 11.65 11.643 12.986 9.976 12.986C8.309 12.986 6.959 11.65 6.959 10.002C6.959 8.354 8.309 7.019 9.976 7.019Z" fill="#0573EA"/>
</g>
<defs>
<clipPath id="clip0_858_732">
<rect width="20" height="20" fill="white" transform="matrix(-1 0 0 1 20 0)"/>
</clipPath>
</defs>
</svg>
