<svg width="26" height="25" viewBox="0 0 26 25" fill="none" xmlns="http://www.w3.org/2000/svg">
<path d="M12.7461 1C19.2115 1 24.4931 6.12698 24.4931 12.5C24.4931 18.873 19.2115 24 12.7461 24C6.28087 23.9998 1 18.8729 1 12.5C1 6.12711 6.28087 1.0002 12.7461 1Z" fill="#E5E5E5" stroke="#F0F0F0" stroke-width="2"/>
<path d="M13.1936 6.01873L15.0581 9.67075L19.2272 10.2564C19.6363 10.3139 19.7996 10.7998 19.5036 11.0787L16.4868 13.9214L17.1989 17.9353C17.2688 18.3292 16.8412 18.6295 16.4753 18.4435L12.7463 16.5484L9.01733 18.4435C8.65143 18.6295 8.22383 18.3291 8.29373 17.9353L9.00583 13.9214L5.98904 11.0787C5.69304 10.7998 5.8564 10.3139 6.26543 10.2564L10.4345 9.67075L12.299 6.01873C12.4819 5.66042 13.0107 5.66042 13.1936 6.01873Z" fill="white"/>
</svg>
