<svg width="14" height="17" viewBox="0 0 14 17" fill="none" xmlns="http://www.w3.org/2000/svg">
<path d="M2.08333 0C1.5308 0 1.00089 0.219493 0.610194 0.610194C0.219493 1.00089 0 1.5308 0 2.08333V14.5833C0 15.1359 0.219493 15.6658 0.610194 16.0565C1.00089 16.4472 1.5308 16.6667 2.08333 16.6667H13.125C13.2908 16.6667 13.4497 16.6008 13.5669 16.4836C13.6842 16.3664 13.75 16.2074 13.75 16.0417C13.75 15.8759 13.6842 15.7169 13.5669 15.5997C13.4497 15.4825 13.2908 15.4167 13.125 15.4167H2.08333C1.86232 15.4167 1.65036 15.3289 1.49408 15.1726C1.3378 15.0163 1.25 14.8043 1.25 14.5833H13.125C13.2908 14.5833 13.4497 14.5175 13.5669 14.4003C13.6842 14.2831 13.75 14.1241 13.75 13.9583V2.08333C13.75 1.80975 13.6961 1.53884 13.5914 1.28608C13.4867 1.03331 13.3333 0.80365 13.1398 0.610194C12.9464 0.416739 12.7167 0.263282 12.4639 0.158584C12.2112 0.053887 11.9403 0 11.6667 0H2.08333ZM3.33333 2.5H10C10.221 2.5 10.433 2.5878 10.5893 2.74408C10.7455 2.90036 10.8333 3.11232 10.8333 3.33333V4.16667C10.8333 4.38768 10.7455 4.59964 10.5893 4.75592C10.433 4.9122 10.221 5 10 5H3.33333C3.11232 5 2.90036 4.9122 2.74408 4.75592C2.5878 4.59964 2.5 4.38768 2.5 4.16667V3.33333C2.5 3.11232 2.5878 2.90036 2.74408 2.74408C2.90036 2.5878 3.11232 2.5 3.33333 2.5Z" fill="#0573EA"/>
</svg>
