<svg width="19" height="19" viewBox="0 0 19 19" fill="none" xmlns="http://www.w3.org/2000/svg">
<path d="M14.9901 11.0399L14.4595 8.15147C14.2303 6.90393 14.1157 6.28015 13.6618 5.91082C13.2079 5.5415 12.556 5.5415 11.2521 5.5415H7.74792C6.44401 5.5415 5.79205 5.5415 5.33819 5.91082C4.88433 6.28015 4.76973 6.90393 4.54051 8.15147L4.00984 11.0399C3.53406 13.6293 3.29617 14.9241 4.0287 15.7745C4.76123 16.6248 6.11448 16.6248 8.82099 16.6248H10.179C12.8856 16.6248 14.2388 16.6248 14.9713 15.7745C15.7038 14.9241 15.4659 13.6293 14.9901 11.0399Z" fill="#0060C6"/>
<path d="M9.50004 8.3125V13.4583M7.52087 11.875L9.50004 13.8542L11.4792 11.875" stroke="white" stroke-width="1.125" stroke-linecap="round" stroke-linejoin="round"/>
<path d="M16.625 8.70833C16.7492 8.64571 16.8571 8.56678 16.9529 8.46727C17.4167 7.98594 17.4167 7.21124 17.4167 5.66181C17.4167 4.11239 17.4167 3.33768 16.9529 2.85634C16.4892 2.375 15.7428 2.375 14.25 2.375H4.75004C3.25726 2.375 2.51087 2.375 2.04712 2.85634C1.58337 3.33768 1.58337 4.11239 1.58337 5.66181C1.58337 7.21124 1.58337 7.98594 2.04712 8.46727C2.14299 8.56678 2.25092 8.64571 2.37504 8.70833" stroke="#0060C6" stroke-width="1.125" stroke-linecap="round"/>
</svg>
