<svg width="22" height="22" viewBox="0 0 22 22" fill="none" xmlns="http://www.w3.org/2000/svg">
<rect x="0.440597" y="0.440597" width="20.2675" height="20.2675" stroke="white" stroke-width="0.881194"/>
<path d="M18.0765 10.5741C18.0765 14.7108 14.723 18.0643 10.5864 18.0643C6.44964 18.0643 3.09619 14.7108 3.09619 10.5741C3.09619 6.43744 6.44964 3.08398 10.5864 3.08398C14.723 3.08398 18.0765 6.43744 18.0765 10.5741Z" stroke="#272727" stroke-width="1.32179"/>
<path d="M19.8268 10.5742H18.0645" stroke="#272727" stroke-width="1.32179" stroke-linecap="round" stroke-linejoin="round"/>
<path d="M3.08416 10.5742H1.32178" stroke="#272727" stroke-width="1.32179" stroke-linecap="round" stroke-linejoin="round"/>
<path d="M10.5743 1.32178V3.08416" stroke="#272727" stroke-width="1.32179" stroke-linecap="round" stroke-linejoin="round"/>
<path d="M10.5743 18.0645V19.8268" stroke="#272727" stroke-width="1.32179" stroke-linecap="round" stroke-linejoin="round"/>
<path d="M13.218 10.5742C13.218 12.0343 12.0344 13.2178 10.5744 13.2178C9.11436 13.2178 7.93079 12.0343 7.93079 10.5742C7.93079 9.1142 9.11436 7.93066 10.5744 7.93066C12.0344 7.93066 13.218 9.1142 13.218 10.5742Z" stroke="#272727" stroke-width="1.32179"/>
</svg>
