<svg width="19" height="19" viewBox="0 0 19 19" fill="none" xmlns="http://www.w3.org/2000/svg">
<rect width="18.6486" height="18.6486" fill="white"/>
<path d="M16.7061 9.32414C16.7061 13.401 13.4011 16.7059 9.32432 16.7059C8.05924 16.7059 6.86845 16.3876 5.8277 15.8268C4.37604 15.0446 3.3992 15.7718 2.53771 15.9023C2.40703 15.9221 2.27687 15.8746 2.18342 15.7812C2.04157 15.6393 2.01457 15.42 2.09292 15.2353C2.43104 14.4384 2.74151 12.9281 2.31819 11.6552C2.07451 10.9225 1.94257 10.1387 1.94257 9.32414C1.94257 5.2473 5.24749 1.94238 9.32432 1.94238C13.4011 1.94238 16.7061 5.2473 16.7061 9.32414Z" fill="#0573EA"/>
<path d="M9.32782 9.32422H9.33481M12.4324 9.32422H12.4394M6.22321 9.32422H6.23018" stroke="white" stroke-width="1.66667" stroke-linecap="round" stroke-linejoin="round"/>
</svg>
