<svg width="18" height="18" viewBox="0 0 18 18" fill="none" xmlns="http://www.w3.org/2000/svg">
<path d="M9 18C13.9706 18 18 13.9706 18 9C18 4.02944 13.9706 0 9 0C4.02944 0 0 4.02944 0 9C0 13.9706 4.02944 18 9 18Z" fill="#E11C0B"/>
<path d="M11.6995 7.50173C12.031 7.17026 12.031 6.63283 11.6995 6.30136C11.368 5.96988 10.8306 5.96988 10.4991 6.30136L9.70681 7.09369C9.31629 7.48421 8.68312 7.48421 8.2926 7.09369L7.50027 6.30136C7.1688 5.96989 6.63137 5.96989 6.29989 6.30136C5.96842 6.63283 5.96842 7.17026 6.29989 7.50173L7.09222 8.29406C7.48275 8.68459 7.48275 9.31775 7.09223 9.70828L6.2999 10.5006C5.96842 10.8321 5.96842 11.3695 6.29989 11.701C6.63137 12.0325 7.16879 12.0325 7.50027 11.701L8.2926 10.9087C8.68312 10.5181 9.31629 10.5181 9.70681 10.9087L10.4991 11.701C10.8306 12.0325 11.368 12.0325 11.6995 11.701C12.031 11.3695 12.031 10.8321 11.6995 10.5006L10.9072 9.70828C10.5167 9.31776 10.5167 8.68459 10.9072 8.29407L11.6995 7.50173Z" fill="white"/>
</svg>
