<svg width="22" height="22" viewBox="0 0 22 22" fill="none" xmlns="http://www.w3.org/2000/svg">
<path d="M13.375 4.125C13.375 2.81332 12.3116 1.75 11 1.75C9.68837 1.75 8.625 2.81332 8.625 4.125C8.625 5.43668 9.68837 6.5 11 6.5C12.3116 6.5 13.375 5.43668 13.375 4.125Z" fill="#272727"/>
<path d="M13.375 11C13.375 9.68837 12.3116 8.625 11 8.625C9.68837 8.625 8.625 9.68837 8.625 11C8.625 12.3116 9.68837 13.375 11 13.375C12.3116 13.375 13.375 12.3116 13.375 11Z" fill="#272727"/>
<path d="M13.375 17.875C13.375 16.5634 12.3116 15.5 11 15.5C9.68837 15.5 8.625 16.5634 8.625 17.875C8.625 19.1866 9.68837 20.25 11 20.25C12.3116 20.25 13.375 19.1866 13.375 17.875Z" fill="#272727"/>
</svg>
