<svg width="12" height="15" viewBox="0 0 12 15" fill="none" xmlns="http://www.w3.org/2000/svg">
<path d="M0 15V14.1667H1.50667V11.6667C1.50667 10.6378 1.82194 9.72528 2.4525 8.92917C3.08306 8.13306 3.89139 7.65667 4.8775 7.5C3.89194 7.33333 3.08361 6.85444 2.4525 6.06333C1.82139 5.27222 1.50611 4.36222 1.50667 3.33333V0.833333H0V0H11.6667V0.833333H10.16V3.33333C10.16 4.36222 9.84472 5.27222 9.21417 6.06333C8.58361 6.85444 7.77528 7.33333 6.78917 7.5C7.77472 7.65556 8.58306 8.13194 9.21417 8.92917C9.84472 9.72528 10.16 10.6378 10.16 11.6667V14.1667H11.6667V15H0Z" fill="#B3B3B3"/>
</svg>
