<svg width="11" height="6" viewBox="0 0 11 6" fill="none" xmlns="http://www.w3.org/2000/svg">
<path fill-rule="evenodd" clip-rule="evenodd" d="M5.77488 5.77488C5.62806 5.92165 5.42897 6.0041 5.22137 6.0041C5.01377 6.0041 4.81468 5.92165 4.66786 5.77488L0.23901 1.34603C0.164235 1.27381 0.104592 1.18742 0.063561 1.0919C0.0225301 0.996385 0.00093288 0.893653 2.95594e-05 0.789701C-0.000873761 0.685748 0.0189351 0.582657 0.0582999 0.486441C0.0976647 0.390226 0.155797 0.302814 0.229306 0.229305C0.302814 0.155797 0.390226 0.0976643 0.486441 0.0582995C0.582656 0.0189347 0.685748 -0.00087376 0.789701 2.95599e-05C0.893653 0.00093288 0.996385 0.0225301 1.0919 0.063561C1.18742 0.104592 1.27381 0.164235 1.34603 0.239009L5.22137 4.11435L9.09672 0.239009C9.24437 0.0963981 9.44213 0.0174864 9.64741 0.0192702C9.85268 0.021054 10.049 0.10339 10.1942 0.248546C10.3394 0.393702 10.4217 0.590062 10.4235 0.795336C10.4253 1.00061 10.3463 1.19837 10.2037 1.34603L5.77488 5.77488Z" fill="#272727"/>
</svg>
