<svg width="27" height="27" viewBox="0 0 27 27" fill="none" xmlns="http://www.w3.org/2000/svg">
<path d="M14.7527 6.37744H12.487C9.2296 6.37744 7.03343 9.86086 8.31657 12.9922C8.49531 13.4285 8.90541 13.7112 9.35917 13.7112H10.1571C10.426 13.7112 10.6604 13.9027 10.7256 14.1756L11.7529 18.4728C11.967 19.3689 12.7368 19.9974 13.6198 19.9974C14.5029 19.9974 15.2726 19.3689 15.4868 18.4728L16.514 14.1756C16.5792 13.9027 16.8137 13.7112 17.0826 13.7112H17.8805C18.3343 13.7112 18.7443 13.4285 18.9231 12.9922C20.2062 9.86086 18.01 6.37744 14.7527 6.37744Z" fill="#0573EA"/>
<path d="M16.4575 3.53989C16.4575 5.107 15.1871 6.37739 13.62 6.37739C12.0529 6.37739 10.7825 5.107 10.7825 3.53989C10.7825 1.97279 12.0529 0.702393 13.62 0.702393C15.1871 0.702393 16.4575 1.97279 16.4575 3.53989Z" fill="#0573EA"/>
<path d="M7.94506 17.7275H6.81006" stroke="#0573EA" stroke-width="1.14" stroke-linecap="round" stroke-linejoin="round"/>
<path d="M13.6201 23.4026V24.5376" stroke="#0573EA" stroke-width="1.14" stroke-linecap="round" stroke-linejoin="round"/>
<path d="M20.4299 17.7275H19.2949" stroke="#0573EA" stroke-width="1.14" stroke-linecap="round" stroke-linejoin="round"/>
</svg>
