<svg width="29" height="29" viewBox="0 0 29 29" fill="none" xmlns="http://www.w3.org/2000/svg">
<path d="M14.2857 7.14276C15.6007 7.14276 16.6667 6.07677 16.6667 4.76181C16.6667 3.44685 15.6007 2.38086 14.2857 2.38086C12.9707 2.38086 11.9048 3.44685 11.9048 4.76181C11.9048 6.07677 12.9707 7.14276 14.2857 7.14276Z" stroke="white" stroke-width="1.5"/>
<path d="M11.9048 4.76172H7.14285" stroke="white" stroke-width="1.5" stroke-linecap="round" stroke-linejoin="round"/>
<path d="M21.4286 4.76172H16.6667" stroke="white" stroke-width="1.5" stroke-linecap="round" stroke-linejoin="round"/>
<path d="M10.7143 23.8096C9.13393 23.7674 8.21471 23.6051 7.64496 22.9817C6.87466 22.1388 7.10631 20.8506 7.5696 18.2739L8.29749 14.2259C8.58945 12.6021 8.73544 11.7902 9.16006 11.1742C9.57773 10.5683 10.1828 10.0931 10.8964 9.81088C11.6217 9.52393 12.5098 9.52393 14.2857 9.52393C16.0617 9.52393 16.9498 9.52393 17.6751 9.81088C18.3886 10.0931 18.9937 10.5683 19.4114 11.1742C19.8359 11.7902 19.982 12.6021 20.2739 14.2259L21.0018 18.2739C21.4651 20.8506 21.6968 22.1388 20.9264 22.9817C20.3593 23.6023 19.4458 23.7663 17.8786 23.8096" stroke="white" stroke-width="1.5" stroke-linecap="round"/>
<path d="M14.2857 21.4287V26.1906" stroke="white" stroke-width="1.5" stroke-linecap="round" stroke-linejoin="round"/>
</svg>
