<svg width="22" height="22" viewBox="0 0 22 22" fill="none" xmlns="http://www.w3.org/2000/svg">
<path d="M8.07042 5.03355L7.7156 4.23521C7.48359 3.71322 7.36759 3.45221 7.19411 3.25247C6.9767 3.00215 6.6933 2.81798 6.37625 2.72097C6.12327 2.64355 5.83765 2.64355 5.26641 2.64355C4.43078 2.64355 4.01296 2.64355 3.66222 2.80419C3.24906 2.99341 2.87594 3.40427 2.72727 3.8337C2.60107 4.19824 2.63722 4.57287 2.70952 5.32212C3.47909 13.2973 7.85149 17.6697 15.8267 18.4394C16.576 18.5116 16.9506 18.5477 17.3151 18.4216C17.7446 18.2729 18.1554 17.8998 18.3447 17.4866C18.5052 17.1359 18.5052 16.718 18.5052 15.8824C18.5052 15.3112 18.5052 15.0256 18.4279 14.7726C18.3309 14.4556 18.1467 14.1722 17.8963 13.9547C17.6967 13.7813 17.4357 13.6652 16.9136 13.4332L16.1153 13.0784C15.55 12.8272 15.2673 12.7016 14.9801 12.6742C14.7052 12.6481 14.4281 12.6867 14.1707 12.7869C13.9019 12.8915 13.6643 13.0895 13.189 13.4856C12.716 13.8798 12.4795 14.0769 12.1904 14.1825C11.9342 14.2762 11.5955 14.3108 11.3256 14.271C11.0212 14.2262 10.7881 14.1016 10.3219 13.8525C8.87142 13.0773 8.07154 12.2774 7.29638 10.827C7.04725 10.3607 6.92268 10.1277 6.87782 9.82322C6.83805 9.5534 6.87272 9.21467 6.96632 8.95842C7.0719 8.6694 7.26901 8.43287 7.66324 7.9598C8.05928 7.48455 8.2573 7.24693 8.36199 6.97807C8.46219 6.72079 8.50076 6.44361 8.47461 6.16875C8.44729 5.88152 8.32166 5.59887 8.07042 5.03355Z" fill="white"/>
</svg>
