<svg width="18" height="18" viewBox="0 0 18 18" fill="none" xmlns="http://www.w3.org/2000/svg">
<path fill-rule="evenodd" clip-rule="evenodd" d="M3 5.1V6H2.1C1.74196 6 1.39858 6.14223 1.14541 6.39541C0.892232 6.64858 0.75 6.99196 0.75 7.35V13.65C0.75 14.008 0.892232 14.3514 1.14541 14.6046C1.39858 14.8578 1.74196 15 2.1 15H14.4C14.5773 15 14.7528 14.9651 14.9166 14.8972C15.0804 14.8294 15.2292 14.73 15.3546 14.6046C15.48 14.4792 15.5794 14.3304 15.6472 14.1666C15.7151 14.0028 15.75 13.8273 15.75 13.65V12.75H16.65C17.394 12.75 18 12.144 18 11.4V5.1C18 4.356 17.394 3.75 16.65 3.75H4.35C3.606 3.75 3 4.356 3 5.1ZM4.5 5.25V6H14.4C14.5773 6 14.7528 6.03492 14.9166 6.10276C15.0804 6.17061 15.2292 6.27005 15.3546 6.39541C15.48 6.52076 15.5794 6.66959 15.6472 6.83338C15.7151 6.99717 15.75 7.17272 15.75 7.35V11.25H16.5V5.25H4.5ZM6.75 10.5C6.75 10.1022 6.90804 9.72064 7.18934 9.43934C7.47064 9.15804 7.85217 9 8.25 9C8.64782 9 9.02936 9.15804 9.31066 9.43934C9.59196 9.72064 9.75 10.1022 9.75 10.5C9.75 10.8978 9.59196 11.2794 9.31066 11.5607C9.02936 11.842 8.64782 12 8.25 12C7.85217 12 7.47064 11.842 7.18934 11.5607C6.90804 11.2794 6.75 10.8978 6.75 10.5Z" fill="#0573EA"/>
</svg>
