<svg width="27" height="22" viewBox="0 0 27 22" fill="none" xmlns="http://www.w3.org/2000/svg">
<path d="M24.5456 12C24.5456 10.6444 23.4466 9.54541 22.091 9.54541C20.7355 9.54541 19.6365 10.6444 19.6365 12C19.6365 13.3555 20.7355 14.4545 22.091 14.4545C23.4466 14.4545 24.5456 13.3555 24.5456 12Z" fill="#0573EA"/>
<path d="M15.9545 12C15.9545 10.6444 14.8555 9.54541 13.5 9.54541C12.1444 9.54541 11.0454 10.6444 11.0454 12C11.0454 13.3555 12.1444 14.4545 13.5 14.4545C14.8555 14.4545 15.9545 13.3555 15.9545 12Z" fill="#0573EA"/>
<path d="M7.36368 12C7.36368 10.6444 6.26475 9.54541 4.90913 9.54541C3.55352 9.54541 2.45459 10.6444 2.45459 12C2.45459 13.3555 3.55352 14.4545 4.90913 14.4545C6.26475 14.4545 7.36368 13.3555 7.36368 12Z" fill="#0573EA"/>
</svg>
