<svg width="22" height="22" viewBox="0 0 22 22" fill="none" xmlns="http://www.w3.org/2000/svg">
<path fill-rule="evenodd" clip-rule="evenodd" d="M7.21881 10.9998C7.21881 10.8175 7.29124 10.6426 7.42017 10.5137C7.5491 10.3848 7.72397 10.3123 7.90631 10.3123H17.9649L16.1673 8.77234C16.0987 8.7136 16.0423 8.64192 16.0014 8.56138C15.9605 8.48085 15.9358 8.39305 15.9289 8.303C15.9219 8.21294 15.9327 8.12239 15.9607 8.03651C15.9887 7.95064 16.0334 7.87113 16.0921 7.80251C16.1509 7.7339 16.2226 7.67752 16.3031 7.63661C16.3836 7.5957 16.4714 7.57105 16.5615 7.56407C16.6515 7.55709 16.7421 7.56792 16.828 7.59593C16.9138 7.62395 16.9934 7.6686 17.062 7.72734L20.2703 10.4773C20.3458 10.5419 20.4064 10.622 20.4479 10.7122C20.4895 10.8024 20.511 10.9005 20.511 10.9998C20.511 11.0992 20.4895 11.1973 20.4479 11.2875C20.4064 11.3777 20.3458 11.4578 20.2703 11.5223L17.062 14.2723C16.9234 14.391 16.7434 14.4497 16.5615 14.4356C16.3796 14.4215 16.2108 14.3358 16.0921 14.1972C15.9735 14.0586 15.9148 13.8786 15.9289 13.6967C15.943 13.5148 16.0287 13.346 16.1673 13.2273L17.964 11.6873H7.90631C7.72397 11.6873 7.5491 11.6149 7.42017 11.486C7.29124 11.357 7.21881 11.1822 7.21881 10.9998Z" fill="#0573EA"/>
<path d="M13.4062 7.3335C13.4062 7.977 13.4063 8.29875 13.2513 8.53066C13.1846 8.63038 13.099 8.71603 12.9992 8.78275C12.7673 8.93766 12.4456 8.93766 11.8021 8.93766H7.90625C7.35924 8.93766 6.83464 9.15496 6.44784 9.54176C6.06105 9.92855 5.84375 10.4532 5.84375 11.0002C5.84375 11.5472 6.06105 12.0718 6.44784 12.4586C6.83464 12.8454 7.35924 13.0627 7.90625 13.0627H11.8021C12.4456 13.0627 12.7673 13.0627 12.9992 13.2167C13.0991 13.2837 13.1847 13.3696 13.2513 13.4697C13.4063 13.7016 13.4062 14.0233 13.4062 14.6668C13.4062 17.2592 13.4063 18.5562 12.6005 19.3611C11.7957 20.1668 10.4995 20.1668 7.90717 20.1668H6.9905C4.39633 20.1668 3.10108 20.1668 2.29533 19.3611C1.48958 18.5562 1.48958 17.2592 1.48958 14.6668V7.3335C1.48958 4.74116 1.48958 3.44408 2.29533 2.63925C3.10108 1.83441 4.39725 1.8335 6.98958 1.8335H7.90625C10.4995 1.8335 11.7957 1.8335 12.6005 2.63925C13.4063 3.44408 13.4062 4.74116 13.4062 7.3335Z" fill="#0573EA"/>
</svg>
