<svg width="20" height="20" viewBox="0 0 20 20" fill="none" xmlns="http://www.w3.org/2000/svg">
<path d="M10 9.16667C11.841 9.16667 13.3334 7.67428 13.3334 5.83333C13.3334 3.99238 11.841 2.5 10 2.5C8.15907 2.5 6.66669 3.99238 6.66669 5.83333C6.66669 7.67428 8.15907 9.16667 10 9.16667Z" fill="#34A853"/>
<path d="M10 9.1665V14.9998" stroke="#34A853" stroke-width="0.875" stroke-linecap="round"/>
<path d="M13.2058 13.3335C14.5786 15.0943 15.2649 15.9747 14.9054 16.6718C14.8722 16.7362 14.8332 16.7983 14.7891 16.8577C14.3102 17.5002 13.0729 17.5002 10.5982 17.5002H9.40183C6.92709 17.5002 5.68971 17.5002 5.21092 16.8577C5.16671 16.7983 5.12782 16.7362 5.09462 16.6718C4.73505 15.9747 5.42142 15.0943 6.79417 13.3335" stroke="#D4D4D4" stroke-width="0.875" stroke-linecap="round" stroke-linejoin="round"/>
</svg>
