<svg width="22" height="22" viewBox="0 0 22 22" fill="none" xmlns="http://www.w3.org/2000/svg">
<path d="M17.6266 7.04129C18.0171 6.65077 18.0171 6.0176 17.6266 5.62708L16.3733 4.37379C15.9827 3.98327 15.3496 3.98327 14.9591 4.37379L11.7074 7.62541C11.3169 8.01594 10.6837 8.01594 10.2932 7.62541L7.0416 4.37379C6.65108 3.98327 6.01791 3.98327 5.62739 4.37379L4.3741 5.62708C3.98357 6.0176 3.98357 6.65077 4.3741 7.04129L7.62572 10.2929C8.01624 10.6834 8.01624 11.3166 7.62572 11.7071L4.3741 14.9587C3.98358 15.3493 3.98357 15.9824 4.3741 16.373L5.62739 17.6262C6.01791 18.0168 6.65107 18.0168 7.0416 17.6262L10.2932 14.3746C10.6837 13.9841 11.3169 13.9841 11.7074 14.3746L14.9591 17.6262C15.3496 18.0168 15.9827 18.0168 16.3733 17.6262L17.6266 16.373C18.0171 15.9824 18.0171 15.3493 17.6266 14.9587L14.3749 11.7071C13.9844 11.3166 13.9844 10.6834 14.3749 10.2929L17.6266 7.04129Z" fill="white"/>
</svg>
