<svg width="18" height="18" viewBox="0 0 18 18" fill="none" xmlns="http://www.w3.org/2000/svg">
<path d="M9 18C13.9706 18 18 13.9706 18 9C18 4.02944 13.9706 0 9 0C4.02944 0 0 4.02944 0 9C0 13.9706 4.02944 18 9 18Z" fill="#47A056"/>
<path d="M8.25008 12.0019C7.96148 12.0019 7.67438 11.8921 7.45463 11.6723L5.20463 9.42233C4.76512 8.98283 4.76512 8.27093 5.20463 7.83158C5.64413 7.39223 6.35603 7.39208 6.79538 7.83158L8.24993 9.28613L11.2045 6.33158C11.644 5.89208 12.3559 5.89208 12.7952 6.33158C13.2346 6.77108 13.2347 7.48298 12.7952 7.92233L9.04523 11.6723C8.82548 11.8921 8.53868 12.0019 8.25008 12.0019Z" fill="white"/>
</svg>
