<svg width="19" height="19" viewBox="0 0 19 19" fill="none" xmlns="http://www.w3.org/2000/svg">
<path d="M4.39188 12.1621C3.54675 12.643 3.04053 13.2556 3.04053 13.9224C3.04053 15.4691 5.76312 16.7229 9.12161 16.7229C12.4801 16.7229 15.2027 15.4691 15.2027 13.9224C15.2027 13.2556 14.6964 12.643 13.8513 12.1621" stroke="#D4D4D4" stroke-width="1.1402" stroke-linecap="round"/>
<path d="M9.88029 5.3208H8.36291C6.18137 5.3208 4.71054 7.65373 5.56989 9.75087C5.6896 10.0431 5.96425 10.2324 6.26814 10.2324H6.8025C6.98262 10.2324 7.13961 10.3606 7.1833 10.5434L7.87125 13.4213C8.01469 14.0215 8.53021 14.4424 9.1216 14.4424C9.71298 14.4424 10.2285 14.0215 10.3719 13.4213L11.0599 10.5434C11.1036 10.3606 11.2606 10.2324 11.4407 10.2324H11.9751C12.279 10.2324 12.5536 10.0431 12.6733 9.75087C13.5327 7.65373 12.0618 5.3208 9.88029 5.3208Z" fill="#E11C0B"/>
<path d="M11.022 3.42085C11.022 4.47037 10.1712 5.32118 9.12165 5.32118C8.07213 5.32118 7.22131 4.47037 7.22131 3.42085C7.22131 2.37132 8.07213 1.52051 9.12165 1.52051C10.1712 1.52051 11.022 2.37132 11.022 3.42085Z" fill="#E11C0B"/>
</svg>
