<svg width="17" height="15" viewBox="0 0 17 15" fill="none" xmlns="http://www.w3.org/2000/svg">
<path d="M9.52747 0.625L16.7225 13.0867C16.8322 13.2767 16.8899 13.4922 16.8899 13.7117C16.8899 13.9311 16.8322 14.1466 16.7225 14.3367C16.6128 14.5267 16.455 14.6845 16.265 14.7942C16.0749 14.9039 15.8594 14.9617 15.64 14.9617H1.24997C1.03055 14.9617 0.814999 14.9039 0.624979 14.7942C0.43496 14.6845 0.277167 14.5267 0.16746 14.3367C0.0577536 14.1466 -1.39354e-06 13.9311 0 13.7117C1.39359e-06 13.4922 0.0577591 13.2767 0.167468 13.0867L7.36247 0.625C7.8433 -0.208333 9.0458 -0.208333 9.52747 0.625ZM8.44497 10.5017C8.22395 10.5017 8.01199 10.5895 7.85571 10.7457C7.69943 10.902 7.61164 11.114 7.61164 11.335C7.61164 11.556 7.69943 11.768 7.85571 11.9243C8.01199 12.0805 8.22395 12.1683 8.44497 12.1683C8.66598 12.1683 8.87794 12.0805 9.03422 11.9243C9.1905 11.768 9.2783 11.556 9.2783 11.335C9.2783 11.114 9.1905 10.902 9.03422 10.7457C8.87794 10.5895 8.66598 10.5017 8.44497 10.5017ZM8.44497 4.66833C8.24086 4.66836 8.04385 4.7433 7.89132 4.87893C7.7388 5.01456 7.64135 5.20146 7.61747 5.40417L7.61164 5.50167V8.835C7.61187 9.0474 7.6932 9.25169 7.83901 9.40614C7.98482 9.56059 8.1841 9.65353 8.39613 9.66598C8.60817 9.67843 8.81695 9.60944 8.97983 9.47311C9.14271 9.33679 9.24738 9.14341 9.27247 8.9325L9.2783 8.835V5.50167C9.2783 5.28065 9.1905 5.06869 9.03422 4.91241C8.87794 4.75613 8.66598 4.66833 8.44497 4.66833Z" fill="#0573EA"/>
</svg>
