<svg width="17" height="19" viewBox="0 0 17 19" fill="none" xmlns="http://www.w3.org/2000/svg">
<path fill-rule="evenodd" clip-rule="evenodd" d="M1.07433 1.07433C-1.09275e-07 2.14775 0 3.87658 0 7.33333V11C0 14.4568 -1.09275e-07 16.1856 1.07433 17.259C2.14867 18.3324 3.87658 18.3333 7.33333 18.3333H9.16667C12.6234 18.3333 14.3522 18.3333 15.4257 17.259C16.4991 16.1847 16.5 14.4568 16.5 11V7.33333C16.5 3.87658 16.5 2.14775 15.4257 1.07433C14.3513 0.0009166 12.6234 0 9.16667 0H7.33333C3.87658 0 2.14775 -1.09275e-07 1.07433 1.07433ZM4.58333 6.64583C4.401 6.64583 4.22613 6.71827 4.0972 6.8472C3.96827 6.97613 3.89583 7.151 3.89583 7.33333C3.89583 7.51567 3.96827 7.69054 4.0972 7.81947C4.22613 7.9484 4.401 8.02083 4.58333 8.02083H11.9167C12.099 8.02083 12.2739 7.9484 12.4028 7.81947C12.5317 7.69054 12.6042 7.51567 12.6042 7.33333C12.6042 7.151 12.5317 6.97613 12.4028 6.8472C12.2739 6.71827 12.099 6.64583 11.9167 6.64583H4.58333ZM4.58333 10.3125C4.401 10.3125 4.22613 10.3849 4.0972 10.5139C3.96827 10.6428 3.89583 10.8177 3.89583 11C3.89583 11.1823 3.96827 11.3572 4.0972 11.4861C4.22613 11.6151 4.401 11.6875 4.58333 11.6875H9.16667C9.349 11.6875 9.52387 11.6151 9.6528 11.4861C9.78173 11.3572 9.85417 11.1823 9.85417 11C9.85417 10.8177 9.78173 10.6428 9.6528 10.5139C9.52387 10.3849 9.349 10.3125 9.16667 10.3125H4.58333Z" fill="#0573EA"/>
</svg>
