<svg width="17" height="14" viewBox="0 0 17 14" fill="none" xmlns="http://www.w3.org/2000/svg">
<path d="M15 0C15.925 0 16.6667 0.741667 16.6667 1.66667V11.6667C16.6667 12.5917 15.925 13.3333 15 13.3333H1.66667C0.741667 13.3333 0 12.5917 0 11.6667V1.66667C0 0.741667 0.741667 0 1.66667 0H15ZM5.41667 9.16667V4.16667H4.375V7.08333L2.29167 4.16667H1.25V9.16667H2.29167V6.25L4.41667 9.16667H5.41667ZM9.58333 5.21667V4.16667H6.25V9.16667H9.58333V8.125H7.5V7.2H9.58333V6.15H7.5V5.21667H9.58333ZM15.4167 8.33333V4.16667H14.375V7.91667H13.4417V5H12.4V7.91667H11.4583V4.16667H10.4167V8.33333C10.4167 8.55435 10.5045 8.76631 10.6607 8.92259C10.817 9.07887 11.029 9.16667 11.25 9.16667H14.5833C14.8043 9.16667 15.0163 9.07887 15.1726 8.92259C15.3289 8.76631 15.4167 8.55435 15.4167 8.33333Z" fill="#0573EA"/>
</svg>
