<svg width="17" height="17" viewBox="0 0 17 17" fill="none" xmlns="http://www.w3.org/2000/svg">
<path d="M8.33333 16.6667C7.19444 16.6667 6.11806 16.4478 5.10417 16.01C4.09028 15.5722 3.205 14.975 2.44833 14.2183C1.69167 13.4617 1.09444 12.5764 0.656667 11.5625C0.218889 10.5486 0 9.47222 0 8.33333C0 7.18056 0.218889 6.10083 0.656667 5.09417C1.09444 4.0875 1.69167 3.20556 2.44833 2.44833C3.205 1.69111 4.09028 1.09389 5.10417 0.656667C6.11806 0.219445 7.19444 0.000555556 8.33333 0C9.48611 0 10.5661 0.218889 11.5733 0.656667C12.5806 1.09444 13.4622 1.69167 14.2183 2.44833C14.9744 3.205 15.5717 4.08694 16.01 5.09417C16.4483 6.10139 16.6672 7.18111 16.6667 8.33333C16.6667 9.47222 16.4478 10.5486 16.01 11.5625C15.5722 12.5764 14.975 13.4619 14.2183 14.2192C13.4617 14.9764 12.5797 15.5736 11.5725 16.0108C10.5653 16.4481 9.48556 16.6667 8.33333 16.6667ZM8.33333 14.9583C8.69444 14.4583 9.00694 13.9375 9.27083 13.3958C9.53472 12.8542 9.75 12.2778 9.91667 11.6667H6.75C6.91667 12.2778 7.13194 12.8542 7.39583 13.3958C7.65972 13.9375 7.97222 14.4583 8.33333 14.9583ZM6.16667 14.625C5.91667 14.1667 5.69806 13.6908 5.51083 13.1975C5.32361 12.7042 5.16722 12.1939 5.04167 11.6667H2.58333C2.98611 12.3611 3.48972 12.9653 4.09417 13.4792C4.69861 13.9931 5.38944 14.375 6.16667 14.625ZM10.5 14.625C11.2778 14.375 11.9689 13.9931 12.5733 13.4792C13.1778 12.9653 13.6811 12.3611 14.0833 11.6667H11.625C11.5 12.1944 11.3439 12.705 11.1567 13.1983C10.9694 13.6917 10.7506 14.1672 10.5 14.625ZM1.875 10H4.70833C4.66667 9.72222 4.63556 9.44805 4.615 9.1775C4.59444 8.90694 4.58389 8.62556 4.58333 8.33333C4.58278 8.04111 4.59333 7.76 4.615 7.49C4.63667 7.22 4.66778 6.94556 4.70833 6.66667H1.875C1.80556 6.94444 1.75361 7.21889 1.71917 7.49C1.68472 7.76111 1.66722 8.04222 1.66667 8.33333C1.66611 8.62444 1.68361 8.90583 1.71917 9.1775C1.75472 9.44917 1.80667 9.72333 1.875 10ZM6.375 10H10.2917C10.3333 9.72222 10.3647 9.44805 10.3858 9.1775C10.4069 8.90694 10.4172 8.62556 10.4167 8.33333C10.4161 8.04111 10.4056 7.76 10.385 7.49C10.3644 7.22 10.3333 6.94556 10.2917 6.66667H6.375C6.33333 6.94444 6.30222 7.21889 6.28167 7.49C6.26111 7.76111 6.25056 8.04222 6.25 8.33333C6.24944 8.62444 6.26 8.90583 6.28167 9.1775C6.30333 9.44917 6.33444 9.72333 6.375 10ZM11.9583 10H14.7917C14.8611 9.72222 14.9133 9.44805 14.9483 9.1775C14.9833 8.90694 15.0006 8.62556 15 8.33333C14.9994 8.04111 14.9822 7.76 14.9483 7.49C14.9144 7.22 14.8622 6.94556 14.7917 6.66667H11.9583C12 6.94444 12.0314 7.21889 12.0525 7.49C12.0736 7.76111 12.0839 8.04222 12.0833 8.33333C12.0828 8.62444 12.0722 8.90583 12.0517 9.1775C12.0311 9.44917 12 9.72333 11.9583 10ZM11.625 5H14.0833C13.6806 4.30556 13.1772 3.70139 12.5733 3.1875C11.9694 2.67361 11.2783 2.29167 10.5 2.04167C10.75 2.5 10.9689 2.97583 11.1567 3.46917C11.3444 3.9625 11.5006 4.47278 11.625 5ZM6.75 5H9.91667C9.75 4.38889 9.53472 3.8125 9.27083 3.27083C9.00694 2.72917 8.69444 2.20833 8.33333 1.70833C7.97222 2.20833 7.65972 2.72917 7.39583 3.27083C7.13194 3.8125 6.91667 4.38889 6.75 5ZM2.58333 5H5.04167C5.16667 4.47222 5.32306 3.96167 5.51083 3.46833C5.69861 2.975 5.91722 2.49944 6.16667 2.04167C5.38889 2.29167 4.69778 2.67361 4.09333 3.1875C3.48889 3.70139 2.98556 4.30556 2.58333 5Z" fill="#0573EA"/>
</svg>
