<svg width="19" height="17" viewBox="0 0 19 17" fill="none" xmlns="http://www.w3.org/2000/svg">
<path d="M9.16601 3.72195e-07C9.96184 3.72195e-07 10.7035 0.389167 11.1577 1.03917L11.2452 1.1725L18.0068 12.4625C18.2123 12.8184 18.3241 13.2206 18.3318 13.6315C18.3394 14.0424 18.2427 14.4485 18.0506 14.8118C17.8585 15.1751 17.5773 15.4837 17.2334 15.7087C16.8895 15.9337 16.4942 16.0678 16.0843 16.0983L15.9218 16.105H2.40101C1.99076 16.1004 1.58837 15.9919 1.2314 15.7897C0.874429 15.5875 0.574514 15.2981 0.359649 14.9486C0.144784 14.5991 0.021975 14.2008 0.00268573 13.791C-0.0166035 13.3812 0.0682556 12.9731 0.249342 12.605L0.331842 12.4508L7.09017 1.16917C7.30632 0.812123 7.61096 0.516908 7.97461 0.312087C8.33827 0.107265 8.74864 -0.000230839 9.16601 3.72195e-07ZM9.17434 11.1083L9.06851 11.1142C8.86597 11.1383 8.67929 11.2358 8.54385 11.3883C8.40841 11.5408 8.3336 11.7377 8.3336 11.9417C8.3336 12.1456 8.40841 12.3425 8.54385 12.495C8.67929 12.6475 8.86597 12.7451 9.06851 12.7692L9.16601 12.775L9.27184 12.7692C9.47438 12.7451 9.66105 12.6475 9.7965 12.495C9.93194 12.3425 10.0067 12.1456 10.0067 11.9417C10.0067 11.7377 9.93194 11.5408 9.7965 11.3883C9.66105 11.2358 9.47438 11.1383 9.27184 11.1142L9.17434 11.1083ZM9.16601 5.275C8.9619 5.27503 8.76489 5.34996 8.61236 5.4856C8.45983 5.62123 8.36239 5.80812 8.33851 6.01083L8.33267 6.10833V9.44167L8.33851 9.53917C8.3626 9.74171 8.46014 9.92838 8.61264 10.0638C8.76515 10.1993 8.96204 10.2741 9.16601 10.2741C9.36998 10.2741 9.56686 10.1993 9.71937 10.0638C9.87188 9.92838 9.96942 9.74171 9.99351 9.53917L9.99934 9.44167V6.10833L9.99351 6.01083C9.96963 5.80812 9.87218 5.62123 9.71965 5.4856C9.56712 5.34996 9.37012 5.27503 9.16601 5.275Z" fill="#0573EA"/>
</svg>
