<svg width="17" height="17" viewBox="0 0 17 17" fill="none" xmlns="http://www.w3.org/2000/svg">
<path d="M0 8.5C0 3.80558 3.80558 0 8.5 0C13.1944 0 17 3.80558 17 8.5C17 13.1944 13.1944 17 8.5 17C3.80558 17 0 13.1944 0 8.5Z" fill="#E11C0B"/>
<path d="M8.49987 4.61548C10.3918 4.61548 11.9958 6.18205 11.9958 8.08262C11.9958 10.0134 10.3657 11.3684 8.85996 12.2898C8.75022 12.3517 8.62612 12.3843 8.49987 12.3843C8.37363 12.3843 8.24952 12.3517 8.13979 12.2898C6.63687 11.3594 5.00391 10.0201 5.00391 8.08262C5.00391 6.18205 6.60795 4.61548 8.49987 4.61548Z" fill="white"/>
<path d="M9.85947 8.1115C9.85947 8.86235 9.25078 9.47104 8.49992 9.47104C7.74907 9.47104 7.14038 8.86235 7.14038 8.1115C7.14038 7.36064 7.74907 6.75195 8.49992 6.75195C9.25078 6.75195 9.85947 7.36064 9.85947 8.1115Z" fill="#E11C0B"/>
</svg>
