<svg width="12" height="14" viewBox="0 0 12 14" fill="none" xmlns="http://www.w3.org/2000/svg">
<path d="M10.22 3.02667H8.92668V1.79333C8.92732 1.43989 8.8235 1.09414 8.62827 0.799506C8.43303 0.504876 8.15509 0.274506 7.82935 0.137333C7.6129 0.0475566 7.38101 0.000906004 7.14668 0H1.78001C1.54538 0.000873847 1.31322 0.0479531 1.09679 0.13855C0.880356 0.229146 0.683886 0.361486 0.518597 0.528013C0.353309 0.69454 0.222439 0.891992 0.13346 1.1091C0.0444808 1.3262 -0.000864629 1.5587 1.24852e-05 1.79333V8.52C-0.000864629 8.75463 0.0444808 8.98713 0.13346 9.20424C0.222439 9.42134 0.353309 9.61879 0.518597 9.78532C0.683886 9.95185 0.880356 10.0842 1.09679 10.1748C1.31322 10.2654 1.54538 10.3125 1.78001 10.3133H3.07335V11.5467C3.07334 12.0194 3.26066 12.4728 3.59429 12.8077C3.92791 13.1426 4.38065 13.3316 4.85335 13.3333H10.1867C10.6594 13.3316 11.1121 13.1426 11.4457 12.8077C11.7794 12.4728 11.9667 12.0194 11.9667 11.5467V4.82C11.9668 4.35235 11.7843 3.90315 11.458 3.56814C11.1317 3.23313 10.6875 3.03884 10.22 3.02667ZM3.07335 4.82V9.31333H1.78001C1.67671 9.31246 1.57458 9.29125 1.47947 9.25091C1.38436 9.21057 1.29813 9.15189 1.2257 9.07822C1.15327 9.00455 1.09606 8.91734 1.05734 8.82156C1.01861 8.72578 0.999133 8.62331 1.00001 8.52V1.79333C0.999133 1.69003 1.01861 1.58756 1.05734 1.49178C1.09606 1.396 1.15327 1.30878 1.2257 1.23512C1.29813 1.16145 1.38436 1.10277 1.47947 1.06243C1.57458 1.02208 1.67671 1.00087 1.78001 1H7.14668C7.24999 1.00087 7.35211 1.02208 7.44722 1.06243C7.54233 1.10277 7.62856 1.16145 7.70099 1.23512C7.77342 1.30878 7.83063 1.396 7.86936 1.49178C7.90808 1.58756 7.92756 1.69003 7.92668 1.79333V3.02667H4.85335C4.38004 3.03019 3.92732 3.22068 3.59388 3.55661C3.26044 3.89255 3.07333 4.34668 3.07335 4.82Z" fill="#0060C6"/>
</svg>
