<svg width="22" height="22" viewBox="0 0 22 22" fill="none" xmlns="http://www.w3.org/2000/svg">
<path d="M10.5056 4.22093C14.7126 2.78671 16.8161 2.0696 17.9476 3.20101C19.079 4.33242 18.3618 6.43596 16.9277 10.643L15.951 13.508C14.8496 16.739 14.2988 18.3544 13.3909 18.4881C13.1469 18.5241 12.8943 18.5025 12.6528 18.4249C11.7547 18.1366 11.2799 16.4333 10.3303 13.0267C10.1197 12.271 10.0144 11.8932 9.77452 11.6046C9.70491 11.5209 9.62772 11.4437 9.544 11.3741C9.25541 11.1342 8.87756 11.0289 8.12198 10.8183C4.71533 9.86873 3.01201 9.39394 2.72365 8.4958C2.64612 8.25433 2.62449 8.00168 2.66044 7.75761C2.79413 6.84978 4.40963 6.29905 7.64062 5.19759L10.5056 4.22093Z" fill="#272727"/>
</svg>
