<svg width="22" height="22" viewBox="0 0 22 22" fill="none" xmlns="http://www.w3.org/2000/svg">
<path d="M4.5835 19.25V18.3333H6.24083V15.5833C6.24083 14.4516 6.58764 13.4478 7.28125 12.5721C7.97486 11.6964 8.86402 11.1723 9.94875 11C8.86464 10.8167 7.97547 10.2899 7.28125 9.41967C6.58702 8.54944 6.24022 7.54844 6.24083 6.41667V3.66667H4.5835V2.75H17.4168V3.66667H15.7595V6.41667C15.7595 7.54844 15.4127 8.54944 14.7191 9.41967C14.0255 10.2899 13.1363 10.8167 12.0516 11C13.1357 11.1711 14.0249 11.6951 14.7191 12.5721C15.4127 13.4478 15.7595 14.4516 15.7595 15.5833V18.3333H17.4168V19.25H4.5835Z" fill="white"/>
</svg>
