<svg width="22" height="22" viewBox="0 0 22 22" fill="none" xmlns="http://www.w3.org/2000/svg">
<path d="M2.75 10.9904V13.2916C2.75 16.3164 2.75 17.8288 3.6897 18.7686C4.6294 19.7083 6.14182 19.7083 9.16667 19.7083H12.8333C15.8582 19.7083 17.3706 19.7083 18.3103 18.7686C19.25 17.8288 19.25 16.3164 19.25 13.2916V10.9904C19.25 9.44923 19.25 8.67871 18.9238 8.01167C18.5975 7.34463 17.9893 6.87155 16.7728 5.92539L14.9395 4.49946C13.047 3.02757 12.1008 2.29163 11 2.29163C9.89918 2.29163 8.95298 3.02757 7.06055 4.49946L5.22721 5.92539C4.01072 6.87155 3.40247 7.34463 3.07624 8.01167C2.75 8.67871 2.75 9.44923 2.75 10.9904Z" fill="#B3B3B3"/>
<path d="M13.7503 15.5834C13.0174 16.1539 12.0546 16.5 11.0003 16.5C9.94582 16.5 8.98315 16.1539 8.25024 15.5834" stroke="white" stroke-width="1.375" stroke-linecap="round" stroke-linejoin="round"/>
</svg>
