<svg width="13" height="19" viewBox="0 0 13 19" fill="none" xmlns="http://www.w3.org/2000/svg">
<path d="M1.66667 18.3333C1.20833 18.3333 0.816111 18.1703 0.49 17.8442C0.163889 17.5181 0.000555556 17.1256 0 16.6667V1.66667C0 1.20833 0.163333 0.816111 0.49 0.49C0.816666 0.163889 1.20889 0.000555556 1.66667 0H10C10.4583 0 10.8508 0.163333 11.1775 0.49C11.5042 0.816667 11.6672 1.20889 11.6667 1.66667V4.25C11.9167 4.34722 12.1181 4.5 12.2708 4.70833C12.4236 4.91667 12.5 5.15278 12.5 5.41667V7.08333C12.5 7.34722 12.4236 7.58333 12.2708 7.79167C12.1181 8 11.9167 8.15278 11.6667 8.25V16.6667C11.6667 17.125 11.5036 17.5175 11.1775 17.8442C10.8514 18.1708 10.4589 18.3339 10 18.3333H1.66667ZM5.04167 11.6667L9.16667 7.54167L8 6.375L5.04167 9.33333L3.875 8.16667L2.70833 9.33333L5.04167 11.6667Z" fill="#0573EA"/>
</svg>
