<svg width="19" height="19" viewBox="0 0 19 19" fill="none" xmlns="http://www.w3.org/2000/svg">
<path d="M9.2125 15.5833L11.825 12.9937L9.2125 10.4042L8.25 11.3667L9.23542 12.3521C8.80764 12.3674 8.39147 12.2986 7.98692 12.1458C7.58236 11.9931 7.21936 11.7562 6.89792 11.4354C6.59236 11.1299 6.35922 10.7785 6.1985 10.3812C6.03778 9.98403 5.95772 9.5868 5.95833 9.18958C5.95833 8.92986 5.99286 8.67014 6.06192 8.41042C6.13097 8.15069 6.22631 7.89861 6.34792 7.65417L5.33958 6.64583C5.07986 7.02778 4.88889 7.43264 4.76667 7.86042C4.64445 8.28819 4.58333 8.72361 4.58333 9.16667C4.58333 9.74722 4.69792 10.3201 4.92708 10.8854C5.15625 11.4507 5.49236 11.9549 5.93542 12.3979C6.37847 12.841 6.875 13.1734 7.425 13.3953C7.975 13.6171 8.54028 13.7353 9.12083 13.75L8.25 14.6208L9.2125 15.5833ZM12.9938 11.6875C13.2535 11.3056 13.4444 10.9007 13.5667 10.4729C13.6889 10.0451 13.75 9.60972 13.75 9.16667C13.75 8.58611 13.6391 8.00922 13.4173 7.436C13.1954 6.86278 12.8633 6.35494 12.4208 5.9125C11.9784 5.47006 11.4779 5.14158 10.9193 4.92708C10.3608 4.71258 9.79183 4.60564 9.2125 4.60625L10.0833 3.7125L9.12083 2.75L6.50834 5.33958L9.12083 7.92917L10.0833 6.96667L9.075 5.95833C9.4875 5.95833 9.90764 6.03869 10.3354 6.19942C10.7632 6.36014 11.1299 6.59297 11.4354 6.89792C11.741 7.20286 11.9741 7.55425 12.1348 7.95208C12.2956 8.34992 12.3756 8.74714 12.375 9.14375C12.375 9.40347 12.3408 9.66319 12.2723 9.92292C12.2039 10.1826 12.1083 10.4347 11.9854 10.6792L12.9938 11.6875ZM9.16667 18.3333C7.89861 18.3333 6.70695 18.0926 5.59167 17.611C4.47639 17.1294 3.50625 16.4765 2.68125 15.6521C1.85625 14.8277 1.20328 13.8576 0.722335 12.7417C0.24139 11.6258 0.000612271 10.4341 1.16034e-06 9.16667C-0.000609951 7.89922 0.240168 6.70756 0.722335 5.59167C1.2045 4.47578 1.85747 3.50564 2.68125 2.68125C3.50503 1.85686 4.47517 1.20389 5.59167 0.722333C6.70817 0.240778 7.89983 0 9.16667 0C10.4335 0 11.6252 0.240778 12.7417 0.722333C13.8582 1.20389 14.8283 1.85686 15.6521 2.68125C16.4759 3.50564 17.1291 4.47578 17.6119 5.59167C18.0947 6.70756 18.3352 7.89922 18.3333 9.16667C18.3315 10.4341 18.0907 11.6258 17.611 12.7417C17.1313 13.8576 16.4783 14.8277 15.6521 15.6521C14.8259 16.4765 13.8557 17.1297 12.7417 17.6119C11.6276 18.0941 10.4359 18.3346 9.16667 18.3333Z" fill="#0573EA"/>
</svg>
