<svg width="36" height="36" viewBox="0 0 36 36" fill="none" xmlns="http://www.w3.org/2000/svg">
<path d="M28.0632 5.24301C25.2247 3.83073 21.7514 3 18 3C14.2486 3 10.7752 3.83073 7.93674 5.24301C6.54477 5.93559 5.84878 6.28188 5.1744 7.37067C4.5 8.45948 4.5 9.51372 4.5 11.6222V16.8556C4.5 25.3807 11.3135 30.1206 15.2595 32.1507C16.3601 32.7169 16.9102 33 18 33C19.0898 33 19.6399 32.7169 20.7403 32.1507C24.6864 30.1206 31.5 25.3807 31.5 16.8556V11.6222C31.5 9.51373 31.5 8.45949 30.8256 7.37067C30.1512 6.28187 29.4552 5.93559 28.0632 5.24301Z" fill="#0573EA"/>
<path d="M15 15V12.75C15 11.0931 16.3431 9.75 18 9.75C19.6569 9.75 21 11.0931 21 12.75V15" stroke="#DEEEFF" stroke-width="1.625" stroke-linecap="round" stroke-linejoin="round"/>
<path d="M21 15H15C13.7574 15 12.75 16.0074 12.75 17.25V19.5C12.75 20.7426 13.7574 21.75 15 21.75H21C22.2426 21.75 23.25 20.7426 23.25 19.5V17.25C23.25 16.0074 22.2426 15 21 15Z" stroke="#DEEEFF" stroke-width="1.625" stroke-linecap="round" stroke-linejoin="round"/>
</svg>
