<svg width="22" height="22" viewBox="0 0 22 22" fill="none" xmlns="http://www.w3.org/2000/svg">
<path d="M18.9456 10.5745C18.9456 15.1978 15.1976 18.9458 10.5742 18.9458C9.13955 18.9458 7.78912 18.5849 6.60885 17.9489C4.96258 17.0618 3.85478 17.8865 2.8778 18.0345C2.72961 18.0569 2.58201 18.0031 2.47602 17.8972C2.31515 17.7363 2.28453 17.4875 2.37339 17.2781C2.75684 16.3743 3.10892 14.6616 2.62886 13.218C2.35251 12.3871 2.20288 11.4982 2.20288 10.5745C2.20288 5.9511 5.95085 2.20312 10.5742 2.20312C15.1976 2.20312 18.9456 5.9511 18.9456 10.5745Z" fill="white"/>
<path d="M10.5784 10.5742H10.5864M14.0992 10.5742H14.1072M7.05762 10.5742H7.06552" stroke="#0573EA" stroke-width="1.25" stroke-linecap="round" stroke-linejoin="round"/>
</svg>
