<svg width="28" height="28" viewBox="0 0 28 28" fill="none" xmlns="http://www.w3.org/2000/svg">
<path fill-rule="evenodd" clip-rule="evenodd" d="M15.9004 23.8837L15.2681 24.9523C14.7046 25.9043 13.2964 25.9043 12.7318 24.9523L12.0994 23.8837C11.6094 23.0553 11.3644 22.64 10.9701 22.4113C10.5758 22.1815 10.0799 22.1733 9.08825 22.1558C7.62292 22.1313 6.70475 22.0415 5.93475 21.7218C5.22701 21.4287 4.58395 20.999 4.04227 20.4573C3.50059 19.9156 3.0709 19.2726 2.77775 18.5648C2.33325 17.4938 2.33325 16.1347 2.33325 13.4163V12.2497C2.33325 8.43117 2.33325 6.52134 3.19309 5.11901C3.6738 4.33407 4.33344 3.67403 5.11809 3.19284C6.52158 2.33301 8.43258 2.33301 12.2499 2.33301H15.7499C19.5684 2.33301 21.4783 2.33301 22.8818 3.19284C23.6663 3.6737 24.3259 4.33333 24.8068 5.11784C25.6666 6.52134 25.6666 8.43234 25.6666 12.2497V13.4163C25.6666 16.1347 25.6666 17.4938 25.2233 18.5648C24.93 19.2727 24.5001 19.9158 23.9582 20.4575C23.4163 20.9992 22.773 21.4288 22.0651 21.7218C21.2951 22.0415 20.3769 22.1302 18.9116 22.1558C17.9199 22.1733 17.4241 22.1815 17.0298 22.4113C16.6354 22.64 16.3904 23.0542 15.9004 23.8837ZM9.33325 13.708C9.10119 13.708 8.87863 13.8002 8.71453 13.9643C8.55044 14.1284 8.45825 14.3509 8.45825 14.583C8.45825 14.8151 8.55044 15.0376 8.71453 15.2017C8.87863 15.3658 9.10119 15.458 9.33325 15.458H15.7499C15.982 15.458 16.2045 15.3658 16.3686 15.2017C16.5327 15.0376 16.6249 14.8151 16.6249 14.583C16.6249 14.3509 16.5327 14.1284 16.3686 13.9643C16.2045 13.8002 15.982 13.708 15.7499 13.708H9.33325ZM8.45825 10.4997C8.45825 10.2676 8.55044 10.0451 8.71453 9.88096C8.87863 9.71686 9.10119 9.62467 9.33325 9.62467H18.6666C18.8986 9.62467 19.1212 9.71686 19.2853 9.88096C19.4494 10.0451 19.5416 10.2676 19.5416 10.4997C19.5416 10.7317 19.4494 10.9543 19.2853 11.1184C19.1212 11.2825 18.8986 11.3747 18.6666 11.3747H9.33325C9.10119 11.3747 8.87863 11.2825 8.71453 11.1184C8.55044 10.9543 8.45825 10.7317 8.45825 10.4997Z" fill="white"/>
</svg>
