<svg width="25" height="25" viewBox="0 0 25 25" fill="none" xmlns="http://www.w3.org/2000/svg">
<path d="M12.7604 8.63196V9.18733H6.63538C5.68408 9.18733 5.20843 9.18733 4.83323 9.34274C4.33297 9.54996 3.93551 9.94743 3.72829 10.4477C3.57288 10.8229 3.57288 11.2985 3.57288 12.2498C3.57288 13.2011 3.57288 13.6768 3.72829 14.052C3.93551 14.5522 4.33297 14.9497 4.83323 15.157C5.20843 15.3123 5.68408 15.3123 6.63538 15.3123H12.7604V15.8677C12.7604 17.9939 12.7604 19.0569 13.3732 19.3367C13.986 19.6165 14.7186 18.8879 16.1838 17.4307L19.8217 13.8128C20.5586 13.08 20.927 12.7135 20.927 12.2498C20.927 11.7862 20.5586 11.4197 19.8217 10.6868L16.1838 7.06897C14.7186 5.61179 13.986 4.88321 13.3732 5.16299C12.7604 5.44276 12.7604 6.50583 12.7604 8.63196Z" fill="white"/>
</svg>
